<svg width="512" height="512" viewBox="0 0 512 512" fill="none" xmlns="http://www.w3.org/2000/svg">
<g clip-path="url(#clip0_423_23)">
<path d="M436.802 444.259H364.266C361.181 444.259 358.678 441.757 358.678 438.672C358.678 435.589 361.18 433.087 364.264 433.087H431.157C430.309 376.342 418.693 337.88 395.708 315.607C377.568 298.033 351.753 289.69 317.016 290.213C306.263 307.833 283.266 318.644 256.001 318.644C228.746 318.644 205.75 307.833 194.996 290.213C160.226 289.701 134.446 298.035 116.292 315.607C93.3097 337.88 81.6924 376.342 80.8443 433.087H147.753C150.832 433.087 153.334 435.589 153.334 438.672C153.336 441.757 150.832 444.259 147.748 444.259H75.2116C73.7352 444.259 72.3014 443.677 71.2549 442.618C70.2108 441.571 69.625 440.151 69.625 438.662C69.7915 375.656 82.5073 332.784 108.518 307.589C129.492 287.269 158.932 277.948 198.464 279.111C200.514 279.169 202.352 280.333 203.281 282.149C211.14 297.533 231.829 307.472 256.001 307.472C280.173 307.472 300.874 297.534 308.729 282.149C309.661 280.333 311.499 279.17 313.536 279.111C353.116 277.959 382.512 287.269 403.481 307.589C429.491 332.783 442.224 375.656 442.375 438.662C442.39 440.151 441.793 441.571 440.745 442.618C439.699 443.677 438.279 444.259 436.802 444.259V444.259Z" fill="#E87637"/>
<path d="M147.753 511.71C144.669 511.71 142.161 509.208 142.161 506.124L142.165 401.875C142.165 398.791 144.664 396.29 147.748 396.29C150.832 396.288 153.333 398.791 153.333 401.875L153.336 506.123C153.336 509.208 150.832 511.71 147.753 511.71V511.71Z" fill="#E87637"/>
<path d="M364.266 511.71C361.181 511.71 358.678 509.208 358.678 506.124V401.875C358.678 398.791 361.18 396.29 364.264 396.29C367.35 396.288 369.849 398.791 369.849 401.875L369.854 506.123C369.854 509.208 367.348 511.71 364.266 511.71V511.71Z" fill="#E87637"/>
<path d="M423.873 511.71H88.1413C85.0563 511.71 82.5547 509.208 82.5547 506.124L82.5594 438.672C82.5594 435.589 85.0563 433.087 88.1401 433.087C91.2264 433.087 93.7256 435.589 93.7256 438.672L93.7291 500.538H418.285V438.672C418.285 435.589 420.787 433.087 423.871 433.087C426.958 433.087 429.457 435.589 429.457 438.672L429.461 506.123C429.461 509.208 426.955 511.71 423.873 511.71Z" fill="#E87637"/>
<path d="M256.005 249.261H256.024C274.612 249.261 291.855 243.885 304.598 234.11C318.638 223.344 326.047 207.948 326.047 189.584L326.048 127.859C263.928 89.4432 248.075 89.4432 185.965 127.859L185.966 189.584C185.966 207.948 193.379 223.345 207.413 234.11C220.158 243.885 237.403 249.261 255.987 249.261H256.005ZM256.026 260.433C256.015 260.433 256.001 260.433 255.987 260.433C234.962 260.433 215.292 254.231 200.617 242.977C183.72 230.012 174.793 211.555 174.793 189.584L174.795 124.751C174.795 122.82 175.783 121.028 177.423 120.015C210.872 99.1837 233.307 87.9077 256.001 87.9077C278.705 87.9065 301.13 99.1837 334.587 120.015C336.217 121.027 337.219 122.82 337.219 124.751L337.223 189.584C337.223 211.555 328.292 230.012 311.395 242.977C296.721 254.23 277.052 260.433 256.026 260.433Z" fill="#E87637"/>
<path d="M180.882 203.677C180.264 203.677 179.634 203.572 179.018 203.351C162.133 197.357 149.365 175.828 147.213 159.315C145.946 149.562 148.388 142.033 154.091 138.123C160.798 133.549 170.534 134.702 183.056 141.556C185.768 143.033 186.758 146.432 185.279 149.132C183.804 151.843 180.403 152.833 177.702 151.355C165.752 144.826 161.445 146.641 160.398 147.351C158.431 148.689 157.628 152.728 158.291 157.883C159.991 170.905 170.452 188.455 182.752 192.831C185.663 193.854 187.176 197.055 186.152 199.965C185.338 202.246 183.184 203.677 180.882 203.677V203.677Z" fill="#E87637"/>
<path d="M331.122 203.677C328.828 203.677 326.675 202.246 325.86 199.965C324.828 197.055 326.349 193.855 329.258 192.831C341.559 188.455 352.021 170.906 353.709 157.883C354.385 152.728 353.579 148.689 351.602 147.351C350.566 146.641 346.248 144.826 334.308 151.355C331.608 152.832 328.21 151.843 326.733 149.132C325.246 146.432 326.244 143.034 328.956 141.556C341.481 134.702 351.218 133.549 357.909 138.123C363.627 142.033 366.055 149.562 364.787 159.315C362.648 175.828 349.88 197.358 332.994 203.351C332.378 203.572 331.748 203.677 331.122 203.677Z" fill="#E87637"/>
<path d="M355.745 149.109C355.259 149.109 354.744 149.039 354.243 148.899C351.279 148.072 349.53 144.989 350.368 142.022C365.733 87.0111 341.267 53.6578 325.324 38.6696C300.262 15.1148 263.89 5.23483 236.867 14.6258C224.698 18.8612 209.438 28.9632 205.854 53.0755C205.609 54.7633 204.585 56.2527 203.108 57.1031C201.619 57.9511 199.813 58.0799 198.231 57.4291C184.301 51.7728 173.351 52.8086 165.681 60.4893C151.429 74.7795 149.563 111.753 161.607 141.253C162.772 144.105 161.41 147.363 158.547 148.538C155.697 149.702 152.438 148.329 151.263 145.478C138.965 115.36 138.03 72.3831 157.767 52.5995C164.704 45.6511 176.806 39.1113 196.101 44.8479C200.98 25.1223 213.954 10.7742 233.201 4.08207C263.985 -6.62348 305.005 4.25687 332.97 30.5223C350.765 47.2456 378.077 84.3465 361.121 145.023C360.438 147.491 358.188 149.109 355.745 149.109Z" fill="#E87637"/>
<path d="M198.304 290.283C196.895 290.283 195.485 289.748 194.39 288.678C192.193 286.513 192.156 282.986 194.321 280.775C202.353 272.595 209.357 258.42 211.731 245.525C212.292 242.488 215.21 240.486 218.236 241.045C221.273 241.604 223.275 244.513 222.716 247.551C219.928 262.69 211.906 278.809 202.293 288.608C201.2 289.724 199.756 290.283 198.304 290.283V290.283Z" fill="#E87637"/>
<path d="M313.699 290.283C312.259 290.283 310.813 289.724 309.719 288.608C300.099 278.809 292.077 262.691 289.284 247.551C288.724 244.513 290.738 241.604 293.764 241.045C296.79 240.486 299.71 242.488 300.269 245.525C302.655 258.419 309.648 272.595 317.69 280.775C319.847 282.986 319.82 286.513 317.62 288.678C316.527 289.748 315.118 290.283 313.699 290.283V290.283Z" fill="#E87637"/>
<path d="M233.04 512C231.584 512 230.117 511.431 229.024 510.302C226.887 508.079 226.941 504.541 229.164 502.4C232.527 499.141 236.042 495.08 239.755 490.775C251.113 477.623 263.984 462.716 281.044 461.191C291.971 460.213 306.669 456.338 311.36 451.777C320.628 442.78 324.649 416.608 318.796 403.481C316.239 397.744 313.129 397.954 311.964 398.035C303.137 398.64 273.689 414.874 264.798 421.752C262.964 423.172 260.433 423.312 258.455 422.101C256.481 420.891 255.453 418.587 255.884 416.306C258.261 403.748 257.489 395.812 253.823 395.067C248.599 393.997 245.655 404.388 243.675 413.57C243.478 414.467 243.315 415.282 243.152 415.968C242.268 419.738 241.709 422.753 241.22 425.43C239.152 436.66 237.787 441.14 224.916 452.836C211.371 465.148 167.031 498.712 151.087 510.604C148.611 512.443 145.118 511.93 143.267 509.464C141.421 506.985 141.93 503.494 144.408 501.643C166.397 485.234 205.655 455.233 217.398 444.561C228.128 434.809 228.536 432.622 230.234 423.404C230.725 420.751 231.328 417.446 232.27 413.407C232.423 412.779 232.573 412.047 232.759 411.22C234.716 402.084 239.311 380.718 256.058 384.128C264.634 385.873 268.755 393.228 268.335 406.041C281.419 398.069 301.514 387.561 311.185 386.886C318.962 386.374 325.301 390.621 329.002 398.92C336.768 416.316 331.702 447.61 319.144 459.795C310.886 467.813 291.261 471.502 282.045 472.329C269.489 473.445 258.189 486.526 248.214 498.07C244.332 502.574 240.65 506.834 236.925 510.431C235.848 511.477 234.435 512.001 233.04 512V512Z" fill="#E87637"/>
<path d="M204.411 394.043C203.457 394.043 202.502 393.798 201.618 393.287C198.954 391.75 198.034 388.329 199.582 385.664L206.102 374.363H194.822C192.832 374.363 190.981 373.293 189.981 371.571C188.994 369.837 188.991 367.707 189.981 365.985L201.342 346.306C202.887 343.629 206.307 342.71 208.973 344.258C211.653 345.805 212.558 349.215 211.021 351.892L204.494 363.191H215.785C217.775 363.191 219.621 364.251 220.611 365.985C221.613 367.707 221.611 369.837 220.611 371.571L209.254 391.25C208.218 393.031 206.343 394.043 204.411 394.043V394.043Z" fill="#E87637"/>
<path d="M262.017 375.795C261.074 375.795 260.108 375.562 259.235 375.051C256.56 373.502 255.652 370.094 257.187 367.416L263.718 356.117H252.427C250.437 356.117 248.587 355.057 247.598 353.323C246.6 351.601 246.597 349.472 247.598 347.738L258.957 328.058C260.508 325.394 263.913 324.475 266.59 326.022C269.259 327.557 270.173 330.979 268.626 333.655L262.11 344.945H273.391C275.381 344.945 277.227 346.016 278.227 347.738C279.219 349.472 279.217 351.601 278.227 353.323L266.86 373.002C265.834 374.795 263.948 375.795 262.017 375.795V375.795Z" fill="#E87637"/>
<path d="M320.732 382.36C319.774 382.36 318.82 382.115 317.934 381.603C315.27 380.067 314.35 376.646 315.887 373.969L322.418 362.68H311.139C309.138 362.68 307.298 361.61 306.297 359.887C305.299 358.153 305.296 356.024 306.297 354.29L317.659 334.622C319.203 331.945 322.625 331.027 325.29 332.574C327.97 334.11 328.873 337.532 327.338 340.208L320.811 351.508H332.086C334.091 351.508 335.926 352.568 336.927 354.29C337.93 356.024 337.929 358.153 336.927 359.887L325.572 379.555C324.535 381.346 322.659 382.36 320.732 382.36V382.36Z" fill="#E87637"/>
</g>
<defs>
<clipPath id="clip0_423_23">
<rect width="512" height="512" fill="white"/>
</clipPath>
</defs>
</svg>
