<svg width="42" height="43" viewBox="0 0 42 43" fill="none" xmlns="http://www.w3.org/2000/svg">
<path d="M7.60648 14.0081H6.04236C5.69441 14.0081 5.41248 14.29 5.41248 14.6379C5.41248 14.9859 5.69441 15.2678 6.04236 15.2678H7.60648C7.95443 15.2678 8.23637 14.9859 8.23637 14.6379C8.23637 14.29 7.95443 14.0081 7.60648 14.0081Z" fill="#E4773A"/>
<path d="M13.4888 14.0081H11.9247C11.5767 14.0081 11.2948 14.29 11.2948 14.6379C11.2948 14.9859 11.5767 15.2678 11.9247 15.2678H13.4888C13.8368 15.2678 14.1187 14.9859 14.1187 14.6379C14.1187 14.29 13.8368 14.0081 13.4888 14.0081Z" fill="#E4773A"/>
<path d="M19.371 14.0081H17.807C17.4591 14.0081 17.1771 14.29 17.1771 14.6379C17.1771 14.9859 17.4591 15.2678 17.807 15.2678H19.371C19.719 15.2678 20.0009 14.9859 20.0009 14.6379C20.0009 14.29 19.719 14.0081 19.371 14.0081Z" fill="#E4773A"/>
<path d="M25.2535 14.0081H23.6893C23.3414 14.0081 23.0594 14.29 23.0594 14.6379C23.0594 14.9859 23.3414 15.2678 23.6893 15.2678H25.2535C25.6014 15.2678 25.8833 14.9859 25.8833 14.6379C25.8833 14.29 25.6014 14.0081 25.2535 14.0081Z" fill="#E4773A"/>
<path d="M31.1358 14.0081H29.5717C29.2237 14.0081 28.9418 14.29 28.9418 14.6379C28.9418 14.9859 29.2237 15.2678 29.5717 15.2678H31.1358C31.4837 15.2678 31.7657 14.9859 31.7657 14.6379C31.7657 14.29 31.4837 14.0081 31.1358 14.0081Z" fill="#E4773A"/>
<path d="M7.60648 19.5889H6.04236C5.69441 19.5889 5.41248 19.8708 5.41248 20.2188C5.41248 20.5667 5.69441 20.8486 6.04236 20.8486H7.60648C7.95443 20.8486 8.23637 20.5667 8.23637 20.2188C8.23637 19.8708 7.95443 19.5889 7.60648 19.5889Z" fill="#E4773A"/>
<path d="M13.4888 19.5889H11.9247C11.5767 19.5889 11.2948 19.8708 11.2948 20.2188C11.2948 20.5667 11.5767 20.8486 11.9247 20.8486H13.4888C13.8368 20.8486 14.1187 20.5667 14.1187 20.2188C14.1187 19.8708 13.8368 19.5889 13.4888 19.5889Z" fill="#E4773A"/>
<path d="M19.371 19.5889H17.807C17.4591 19.5889 17.1771 19.8708 17.1771 20.2188C17.1771 20.5667 17.4591 20.8486 17.807 20.8486H19.371C19.719 20.8486 20.0009 20.5667 20.0009 20.2188C20.0009 19.8708 19.719 19.5889 19.371 19.5889Z" fill="#E4773A"/>
<path d="M25.2535 19.5889H23.6893C23.3414 19.5889 23.0594 19.8708 23.0594 20.2188C23.0594 20.5667 23.3414 20.8486 23.6893 20.8486H25.2535C25.6014 20.8486 25.8833 20.5667 25.8833 20.2188C25.8833 19.8708 25.6014 19.5889 25.2535 19.5889Z" fill="#E4773A"/>
<path d="M31.1358 19.5889H29.5717C29.2237 19.5889 28.9418 19.8708 28.9418 20.2188C28.9418 20.5667 29.2237 20.8486 29.5717 20.8486H31.1358C31.4837 20.8486 31.7657 20.5667 31.7657 20.2188C31.7657 19.8708 31.4837 19.5889 31.1358 19.5889Z" fill="#E4773A"/>
<path d="M7.60648 25.1697H6.04236C5.69441 25.1697 5.41248 25.4516 5.41248 25.7996C5.41248 26.1475 5.69441 26.4294 6.04236 26.4294H7.60648C7.95443 26.4294 8.23637 26.1475 8.23637 25.7996C8.23637 25.4516 7.95443 25.1697 7.60648 25.1697Z" fill="#E4773A"/>
<path d="M13.4888 25.1697H11.9247C11.5767 25.1697 11.2948 25.4516 11.2948 25.7996C11.2948 26.1475 11.5767 26.4294 11.9247 26.4294H13.4888C13.8368 26.4294 14.1187 26.1475 14.1187 25.7996C14.1187 25.4516 13.8368 25.1697 13.4888 25.1697Z" fill="#E4773A"/>
<path d="M19.371 25.1697H17.807C17.4591 25.1697 17.1771 25.4516 17.1771 25.7996C17.1771 26.1475 17.4591 26.4294 17.807 26.4294H19.371C19.719 26.4294 20.0009 26.1475 20.0009 25.7996C20.0009 25.4516 19.719 25.1697 19.371 25.1697Z" fill="#E4773A"/>
<path d="M7.60648 30.7505H6.04236C5.69441 30.7505 5.41248 31.0325 5.41248 31.3804C5.41248 31.7284 5.69441 32.0103 6.04236 32.0103H7.60648C7.95443 32.0103 8.23637 31.7284 8.23637 31.3804C8.23637 31.0325 7.95443 30.7505 7.60648 30.7505Z" fill="#E4773A"/>
<path d="M13.4888 30.7505H11.9247C11.5767 30.7505 11.2948 31.0325 11.2948 31.3804C11.2948 31.7284 11.5767 32.0103 11.9247 32.0103H13.4888C13.8368 32.0103 14.1187 31.7284 14.1187 31.3804C14.1187 31.0325 13.8368 30.7505 13.4888 30.7505Z" fill="#E4773A"/>
<path d="M19.371 30.7505H17.807C17.4591 30.7505 17.1771 31.0325 17.1771 31.3804C17.1771 31.7284 17.4591 32.0103 17.807 32.0103H19.371C19.719 32.0103 20.0009 31.7284 20.0009 31.3804C20.0009 31.0325 19.719 30.7505 19.371 30.7505Z" fill="#E4773A"/>
<path d="M21.194 35.6784H3.14941C2.1075 35.6784 1.25977 34.8307 1.25977 33.7888V10.3398H4.41901C4.76695 10.3398 5.04889 10.0579 5.04889 9.70994C5.04889 9.36199 4.76695 9.08005 4.41901 9.08005H1.25977V5.74546C1.25977 4.70355 2.1075 3.85581 3.14941 3.85581H4.62754C4.9214 5.33402 6.22811 6.45185 7.79131 6.45185C8.13926 6.45185 8.4212 6.16991 8.4212 5.82196C8.4212 5.47402 8.13926 5.19208 7.79131 5.19208C6.92745 5.19208 6.19242 4.63182 5.92921 3.85581H11.8261C12.12 5.33402 13.4267 6.45185 14.9899 6.45185C15.3378 6.45185 15.6198 6.16991 15.6198 5.82196C15.6198 5.47402 15.3378 5.19208 14.9899 5.19208C14.126 5.19208 13.391 4.63182 13.1278 3.85581H19.0246C19.3185 5.33402 20.6252 6.45185 22.1884 6.45185C22.5364 6.45185 22.8183 6.16991 22.8183 5.82196C22.8183 5.47402 22.5364 5.19208 22.1884 5.19208C21.3246 5.19208 20.5895 4.63182 20.3263 3.85581H26.2232C26.5171 5.33402 27.8238 6.45185 29.387 6.45185C29.7349 6.45185 30.0169 6.16991 30.0169 5.82196C30.0169 5.47402 29.7349 5.19208 29.387 5.19208C28.5231 5.19208 27.7881 4.63182 27.5249 3.85581H34.0288C35.0707 3.85581 35.9184 4.70355 35.9184 5.74546V9.08005H7.66576C7.31781 9.08005 7.03588 9.36199 7.03588 9.70994C7.03588 10.0579 7.31781 10.3398 7.66576 10.3398H35.9184V23.0092C35.9184 23.3571 36.2003 23.6391 36.5482 23.6391C36.8962 23.6391 37.1781 23.3571 37.1781 23.0092V5.74546C37.1781 4.00883 35.7653 2.59604 34.0287 2.59604H32.5493C32.2555 1.118 30.95 0 29.3869 0C27.8237 0 26.517 1.11783 26.2231 2.59604H25.3521C25.0583 1.11783 23.7516 0 22.1883 0C20.6251 0 19.3184 1.11783 19.0246 2.59604H18.1536C17.8598 1.11783 16.5531 0 14.9898 0C13.4265 0 12.1199 1.11783 11.826 2.59604H10.955C10.6612 1.11783 9.35452 0 7.79131 0C6.22811 0 4.92132 1.11783 4.62754 2.59604H3.14941C1.41279 2.59604 0 4.00883 0 5.74546V33.7888C0 35.5254 1.41279 36.9382 3.14941 36.9382H21.1939C21.5418 36.9382 21.8238 36.6562 21.8238 36.3083C21.8238 35.9603 21.5418 35.6784 21.194 35.6784ZM29.3869 1.25977C30.2508 1.25977 30.9856 1.81994 31.2487 2.59604H27.5248C27.7881 1.82003 28.523 1.25977 29.3869 1.25977ZM22.1883 1.25977C23.0522 1.25977 23.7872 1.82003 24.0504 2.59604H20.3262C20.5895 1.82003 21.3245 1.25977 22.1883 1.25977ZM14.9898 1.25977C15.8536 1.25977 16.5887 1.82003 16.8519 2.59604H13.1277C13.391 1.82003 14.1259 1.25977 14.9898 1.25977ZM7.79131 1.25977C8.65518 1.25977 9.39021 1.82003 9.65342 2.59604H5.92921C6.19242 1.82003 6.92737 1.25977 7.79131 1.25977Z" fill="#E4773A"/>
<path d="M35.1623 31.7359H34.0052V30.5788C34.0052 29.7392 33.3221 29.0561 32.4825 29.0561H31.5721C30.7325 29.0561 30.0494 29.7392 30.0494 30.5788V31.7359H28.8923C28.0528 31.7359 27.3696 32.419 27.3696 33.2587V34.169C27.3696 35.0086 28.0528 35.6917 28.8923 35.6917H30.0494V36.8488C30.0494 37.6884 30.7325 38.3716 31.5721 38.3716H32.4825C33.3221 38.3716 34.0052 37.6884 34.0052 36.8488V35.6917H35.1623C36.0019 35.6917 36.685 35.0086 36.685 34.169V33.2587C36.685 32.419 36.0019 31.7359 35.1623 31.7359ZM35.4252 34.169C35.4252 34.314 35.3073 34.4319 35.1623 34.4319H33.6236C33.1394 34.4319 32.7455 34.8259 32.7455 35.3102V36.8488C32.7455 36.9939 32.6276 37.1118 32.4825 37.1118H31.5721C31.4271 37.1118 31.3092 36.9939 31.3092 36.8488V35.3102C31.3092 34.8259 30.9153 34.4319 30.431 34.4319H28.8923C28.7473 34.4319 28.6294 34.314 28.6294 34.169V33.2587C28.6294 33.1136 28.7473 32.9956 28.8923 32.9956H30.431C30.9153 32.9956 31.3092 32.6017 31.3092 32.1175V30.5788C31.3092 30.4338 31.4271 30.3159 31.5721 30.3159H32.4825C32.6276 30.3159 32.7455 30.4338 32.7455 30.5788V32.1175C32.7455 32.6017 33.1394 32.9956 33.6236 32.9956H35.1623C35.3073 32.9956 35.4252 33.1136 35.4252 33.2587V34.169Z" fill="#E4773A"/>
<path d="M38.5847 27.1564C37.1612 25.7328 35.3585 24.8274 33.3717 24.5379C31.4516 24.2582 29.4517 24.596 27.7396 25.4891C27.3481 25.6932 26.8867 25.6895 26.5048 25.4793C26.5048 25.4792 26.5048 25.4792 26.5047 25.4792L24.7872 24.533C24.225 24.2232 23.5419 24.3201 23.0877 24.7741C22.6336 25.2283 22.5367 25.9115 22.8467 26.474L23.7925 28.1908C24.0033 28.5733 24.0084 29.0324 23.8063 29.4191C22.8947 31.1629 22.5607 33.199 22.8657 35.1524C23.1819 37.1769 24.1353 38.9987 25.6228 40.4207C27.3668 42.0877 29.634 43.0001 32.0232 43C32.0758 43 32.1288 42.9996 32.1816 42.9987C34.6279 42.9574 36.9257 41.9647 38.6519 40.2033C40.3718 38.4484 41.3125 36.128 41.3008 33.6694C41.289 31.2092 40.3244 28.8961 38.5847 27.1564ZM37.7521 39.3216C34.6451 42.4921 29.6996 42.5748 26.4932 39.51C23.9254 37.0554 23.2795 33.1459 24.9226 30.0028C25.3209 29.2409 25.3109 28.3363 24.8959 27.583L23.9501 25.8662C23.9094 25.7923 23.9189 25.7245 23.9786 25.665C24.014 25.6295 24.0522 25.6118 24.093 25.6118C24.1207 25.6118 24.1495 25.62 24.1793 25.6365L25.8969 26.5828C26.6491 26.9971 27.5558 27.0059 28.3222 26.6061C31.4397 24.9799 35.2057 25.5591 37.6938 28.0473C40.787 31.1403 40.8132 36.1981 37.7521 39.3216Z" fill="#E4773A"/>
</svg>
