<svg width="43" height="43" viewBox="0 0 43 43" fill="none" xmlns="http://www.w3.org/2000/svg">
<path d="M34.8466 37.4516L33.2411 32.6342C32.68 30.9524 31.2485 29.7109 29.5035 29.3933L24.8686 28.5499V28.1907C25.6752 27.7225 26.377 27.0962 26.936 26.3548H28.3363C29.4834 26.3548 30.4169 25.4213 30.4169 24.2742V15.9516C30.4169 10.9803 26.3722 6.93549 21.4008 6.93549C16.4295 6.93549 12.3847 10.9803 12.3847 15.9516V20.8065C12.3847 22.1436 13.3355 23.2623 14.5964 23.5231C14.9855 25.5163 16.2311 27.203 17.9331 28.1907V28.5499L13.2974 29.3933C11.5531 29.7109 10.1209 30.9524 9.56056 32.6342L9.28314 33.4672L6.92091 31.1049C6.65043 30.8345 6.65043 30.3941 6.92091 30.1236L9.66043 27.3848L4.51846 22.2428L1.42246 25.3388C0.50559 26.2557 0.000686646 27.4749 0.000686646 28.7719C0.000686646 30.0688 0.50559 31.2874 1.42246 32.2042L10.7958 41.5775C11.7126 42.4944 12.9319 43 14.2288 43C15.5258 43 16.7443 42.4944 17.6397 41.5983L21.018 38.503L19.9645 37.4516H34.8466ZM29.0299 24.2742C29.0299 24.657 28.7184 24.9677 28.3363 24.9677H27.753C27.9542 24.5093 28.1067 24.0259 28.2052 23.5231C28.5021 23.4614 28.7753 23.3435 29.0299 23.195V24.2742ZM28.3363 22.0007V19.6122C28.749 19.8528 29.0299 20.2953 29.0299 20.8065C29.0299 21.3176 28.749 21.7601 28.3363 22.0007ZM14.4653 22.0007C14.0527 21.7601 13.7718 21.3176 13.7718 20.8065C13.7718 20.2953 14.0527 19.8528 14.4653 19.6122V22.0007ZM14.4653 17.3387V18.1307C14.2184 18.1952 13.9868 18.2923 13.7718 18.4179V15.9516C13.7718 11.7452 17.1944 8.32258 21.4008 8.32258C25.6072 8.32258 29.0299 11.7452 29.0299 15.9516V18.4179C28.8148 18.2923 28.5832 18.1945 28.3363 18.1307V17.3387H27.6428C25.5919 17.3387 23.6639 16.5397 22.213 15.0895L21.4008 14.2774L20.5887 15.0895C19.1378 16.5397 17.2097 17.3387 15.1589 17.3387H14.4653ZM15.8524 22.1935V18.6995C17.9352 18.5427 19.8771 17.6834 21.4008 16.2346C22.9245 17.6834 24.8665 18.5434 26.9492 18.6995V22.1935C26.9492 23.2047 26.6732 24.1507 26.1988 24.9677H21.4008V26.3548H25.0586C24.0807 27.2155 22.8025 27.7419 21.4008 27.7419C18.3416 27.7419 15.8524 25.2528 15.8524 22.1935ZM23.4815 28.8093V28.8419L21.4008 30.9225L19.3202 28.8419V28.8093C19.9777 29.016 20.6761 29.129 21.4008 29.129C22.1256 29.129 22.824 29.016 23.4815 28.8093ZM10.8755 33.0725C11.2757 31.8713 12.2987 30.9843 13.545 30.7568L18.3929 29.876L21.4008 32.8839L24.408 29.8767L29.2553 30.7575C30.5016 30.985 31.5245 31.8713 31.9247 33.0732L32.9227 36.0645H18.5774L15.876 33.3631L12.8743 36.0784C12.6129 36.3412 12.1558 36.3412 11.8937 36.0784L10.3789 34.5637L10.8755 33.0725ZM4.51777 24.2041L7.69838 27.3848L6.94519 28.138L3.76457 24.9573L4.51777 24.2041ZM16.6791 40.5982C16.0244 41.2516 15.1533 41.6129 14.2274 41.6129C13.3016 41.6129 12.4305 41.2516 11.7751 40.5969L2.40175 31.2242C1.74704 30.5695 1.3864 29.6984 1.3864 28.7725C1.3864 27.846 1.74704 26.9749 2.40175 26.3202L2.7832 25.9387L5.96382 29.1193L5.93885 29.1443C5.12809 29.9557 5.12809 31.2756 5.93885 32.087L10.9123 37.0605C11.3055 37.453 11.8278 37.6701 12.384 37.6701C12.9402 37.6701 13.4625 37.4537 13.83 37.0847L13.8821 37.0383L17.0772 40.2334L16.6791 40.5982ZM18.1009 39.2944L14.9127 36.1061L15.8288 35.278L19.0115 38.4607L18.1009 39.2944Z" fill="#E4773A"/>
<path d="M40.8202 0H31.1105C29.9634 0 29.0299 0.933516 29.0299 2.08065V7.62903C29.0299 8.77616 29.9634 9.70968 31.1105 9.70968H32.963L32.2458 13.8925L38.9386 9.70968H40.8202C41.9673 9.70968 42.9008 8.77616 42.9008 7.62903V2.08065C42.9008 0.933516 41.9673 0 40.8202 0ZM41.5137 7.62903C41.5137 8.01118 41.2023 8.32258 40.8202 8.32258H38.5405L34.1358 11.0753L34.6081 8.32258H31.1105C30.7284 8.32258 30.417 8.01118 30.417 7.62903V2.08065C30.417 1.6985 30.7284 1.3871 31.1105 1.3871H40.8202C41.2023 1.3871 41.5137 1.6985 41.5137 2.08065V7.62903Z" fill="#E4773A"/>
<path d="M40.1266 2.77417H31.804V4.16127H40.1266V2.77417Z" fill="#E4773A"/>
<path d="M37.3524 5.5484H31.804V6.9355H37.3524V5.5484Z" fill="#E4773A"/>
<path d="M40.1266 5.5484H38.7395V6.9355H40.1266V5.5484Z" fill="#E4773A"/>
<path d="M21.4008 2.08063C12.3389 2.08063 4.53303 8.34892 2.50371 17.0925L1.18944 14.9016L0 15.6152L2.43782 19.6773L6.49994 17.2395L5.78627 16.0501L3.90676 17.1778C5.87227 9.17909 13.0651 3.46772 21.4008 3.46772C23.2228 3.46772 25.0205 3.73821 26.7439 4.27224L27.1545 2.94756C25.2979 2.37192 23.3622 2.08063 21.4008 2.08063Z" fill="#E4773A"/>
<path d="M42.5638 15.3565L38.5016 12.9187L36.0645 16.9815L37.254 17.6952L38.4677 15.6721C39.1064 17.5412 39.4331 19.4963 39.4331 21.5C39.4331 25.6245 38.0044 29.6568 35.4112 32.8534L36.4883 33.7272C39.2819 30.2845 40.8202 25.9415 40.8202 21.5C40.8202 19.3784 40.4783 17.3068 39.8118 15.3232L41.8501 16.546L42.5638 15.3565Z" fill="#E4773A"/>
</svg>
