<svg width="496" height="501" viewBox="0 0 496 501" fill="none" xmlns="http://www.w3.org/2000/svg">
<path d="M98.728 72.936L155.624 52.624C166.427 48.7811 176.112 42.324 183.813 33.8286C191.514 25.3331 196.993 15.0635 199.76 3.93596L184.24 0.0639648C182.105 8.63223 177.885 16.5395 171.954 23.0816C166.023 29.6237 158.566 34.5975 150.248 37.56L93.352 57.872C76.4129 63.9472 61.023 73.6854 48.28 86.392C27.5977 107.017 15.4927 134.708 14.4 163.896L9.28 296.136C8.672 311.768 6.6 337.104 4.664 352.608C1.82089 377.618 0.264176 402.758 0 427.928V498H16V427.928C16.2654 403.421 17.7874 378.943 20.56 354.592C22.552 338.712 24.672 312.768 25.288 296.76L30.4 164.512C31.3432 139.356 41.7691 115.489 59.584 97.704C70.6547 86.6734 84.0194 78.217 98.728 72.936V72.936Z" fill="#E87637"/>
<path d="M474.528 157.768C471.493 133.389 461.617 110.368 446.044 91.3671C430.471 72.3665 409.837 58.1631 386.528 50.4L345.832 36.84C337.508 34.0895 330.016 29.2736 324.057 22.8423C318.099 16.4109 313.868 8.57408 311.76 0.0639648L296.24 3.93596C298.994 15.0654 304.526 25.3142 312.319 33.7232C320.112 42.1321 329.912 48.4261 340.8 52.016L381.44 65.568C401.89 72.3745 419.996 84.8324 433.66 101.5C447.325 118.168 455.992 138.364 458.656 159.752L475.92 297.872C478.631 319.601 479.994 341.478 480 363.376C480.017 382.594 476.348 401.636 469.192 419.472C468.129 422 466.126 424.016 463.605 425.095C461.084 426.174 458.243 426.232 455.68 425.256L429.28 414.704C421.948 411.775 414.365 409.521 406.624 407.968C362.504 399.094 321.137 379.822 285.96 351.752C268.363 337.7 246.52 330.032 224 330H181.976C162.565 329.995 143.202 328.077 124.168 324.272C122.902 324.025 121.773 323.314 121.002 322.279C120.232 321.243 119.875 319.958 120.002 318.674C120.129 317.389 120.731 316.199 121.689 315.334C122.647 314.47 123.894 313.994 125.184 314H176V298H125.184C122.03 298.018 118.921 298.748 116.088 300.136C114.801 299.724 113.695 298.881 112.958 297.747C112.221 296.614 111.898 295.261 112.044 293.918C112.19 292.574 112.796 291.322 113.759 290.373C114.721 289.425 115.982 288.838 117.328 288.712L184.8 281.96L183.2 266.04L115.736 272.792C114.786 272.91 113.846 273.092 112.92 273.336C112.326 272.415 112.006 271.344 112 270.248C112.003 268.816 112.528 267.435 113.476 266.363C114.425 265.291 115.732 264.601 117.152 264.424L168.992 257.936L167.008 242.064L120.336 247.896C120.143 247.366 120.03 246.811 120 246.248C119.998 244.533 120.57 242.867 121.626 241.515C122.682 240.164 124.16 239.205 125.824 238.792L177.936 225.76C179.005 225.492 180.007 225.007 180.88 224.334C181.752 223.661 182.476 222.815 183.007 221.849C183.537 220.883 183.862 219.818 183.961 218.721C184.061 217.624 183.932 216.517 183.584 215.472L178.648 200.656C176.89 195.386 175.996 189.867 176 184.312C176.001 182.846 176.512 181.427 177.445 180.297C178.378 179.167 179.675 178.396 181.114 178.118C182.553 177.84 184.044 178.071 185.331 178.772C186.618 179.473 187.621 180.6 188.168 181.96L200.568 212.968C201.119 214.327 202.025 215.512 203.192 216.4L208.792 220.608C224.377 232.321 235.469 249.027 240.216 267.936C240.639 269.637 241.609 271.152 242.976 272.248C270.286 294.074 302.632 308.704 337.056 314.8L389.184 324C409.334 327.525 427.902 337.193 442.344 351.68L453.656 340.368C441.278 327.963 426.228 318.553 409.656 312.856C392.854 282.326 384.029 248.048 384 213.2V186H368V213.2C368.033 228.958 369.742 244.667 373.096 260.064C366.355 266.982 358.839 273.1 350.696 278.296C351.387 277.235 351.815 276.026 351.947 274.767C352.08 273.509 351.911 272.237 351.456 271.056L319.456 191.056C319.004 189.909 318.293 188.882 317.379 188.056C316.464 187.229 315.371 186.625 314.185 186.29C312.998 185.956 311.751 185.9 310.539 186.127C309.328 186.354 308.185 186.858 307.2 187.6L279.504 208.4L244.12 187.168C242.58 186.243 240.773 185.864 238.991 186.09C237.209 186.317 235.555 187.138 234.296 188.419C233.036 189.701 232.245 191.369 232.049 193.154C231.854 194.94 232.265 196.74 233.216 198.264L273.216 262.264C273.855 263.284 274.715 264.146 275.733 264.788C276.751 265.429 277.901 265.832 279.096 265.968C280.292 266.12 281.507 265.993 282.645 265.596C283.784 265.199 284.814 264.543 285.656 263.68L304 245.312L338.344 279.656C339.844 281.156 341.879 282 344 282C344.192 282 344.384 281.928 344.576 281.92C335.755 286.855 326.373 290.711 316.632 293.408C294.334 286.55 273.464 275.708 255.032 261.408C249.041 240.005 236.167 221.17 218.4 207.816L214.576 204.944L203.008 176.016C201.074 171.214 197.53 167.234 192.983 164.758C188.436 162.282 183.17 161.464 178.086 162.444C173.003 163.425 168.418 166.143 165.119 170.132C161.819 174.122 160.01 179.135 160 184.312C159.995 191.589 161.171 198.819 163.48 205.72L165.68 212.336L121.944 223.264C119.785 223.824 117.716 224.688 115.8 225.832C111.628 209.708 104.36 194.549 94.4002 181.2L81.6002 190.8C95.159 209.01 102.902 230.891 103.816 253.576C100.067 256.627 97.474 260.868 96.4657 265.595C95.4574 270.323 96.0948 275.253 98.2722 279.568L82.9442 331.664C75.6829 356.322 71.9974 381.895 72.0002 407.6C72.0107 434.819 67.6208 461.862 59.0002 487.68L56.4082 495.472L71.6082 500.528L74.1922 492.744C83.3548 465.293 88.0177 436.54 88.0002 407.6C87.9981 383.415 91.4627 359.354 98.2882 336.152L104.376 315.464C103.376 320.571 104.384 325.867 107.192 330.248C107.52 332.144 107.856 334.048 108.232 335.944C110.739 348.474 112.001 361.221 112 374C112 386.773 110.738 399.515 108.232 412.04C105.421 426.12 104.004 440.442 104 454.8V498H120V454.8C120.005 441.498 121.318 428.229 123.92 415.184C126.63 401.623 127.997 387.829 128 374C127.984 362.847 127.08 351.713 125.296 340.704C143.988 344.197 162.961 345.97 181.976 346H224C242.898 346.019 261.231 352.45 276 364.24C304.638 387.066 337.228 404.435 372.144 415.48C374.71 428.429 376.001 441.599 376 454.8V498H392V454.8C391.985 443.262 391.054 431.743 389.216 420.352C393.952 421.552 398.712 422.704 403.504 423.664C410.291 425.025 416.94 427.001 423.368 429.568L449.768 440.128C456.269 442.727 463.536 442.637 469.971 439.878C476.406 437.119 481.481 431.917 484.08 425.416C491.977 405.686 496.024 384.627 496 363.376C495.994 340.815 494.591 318.276 491.8 295.888L474.528 157.768ZM309.656 228.344C308.156 226.844 306.122 226.002 304 226.002C301.879 226.002 299.844 226.844 298.344 228.344L281.456 245.2L264.424 218L275.88 224.872C277.245 225.689 278.823 226.081 280.412 225.997C282.001 225.913 283.529 225.357 284.8 224.4L308.448 206.664L322.096 240.784L309.656 228.344ZM377.704 277.776C380.799 288.021 384.625 298.031 389.152 307.728L344.712 299.888C356.697 294.109 367.804 286.664 377.704 277.776V277.776Z" fill="#E87637"/>
<path d="M256 450H240V466H256V450Z" fill="#E87637"/>
<path d="M194.536 79.256L152.992 74.064L151.008 89.936L192.552 95.136C205.333 96.753 217.217 102.563 226.344 111.656L237.656 100.344C226.013 88.7358 210.847 81.3189 194.536 79.256V79.256Z" fill="#E87637"/>
<path d="M240 170C241.452 169.999 242.876 169.604 244.12 168.856L279.504 147.6L307.2 168.4C308.183 169.137 309.322 169.639 310.529 169.865C311.737 170.091 312.981 170.036 314.163 169.704C315.346 169.372 316.437 168.772 317.351 167.951C318.264 167.13 318.976 166.109 319.432 164.968L351.432 84.9679C352.116 83.2568 352.189 81.3621 351.637 79.6038C351.086 77.8455 349.944 76.3315 348.406 75.3176C346.867 74.3037 345.025 73.8521 343.192 74.0391C341.359 74.2261 339.646 75.0402 338.344 76.3439L304 110.688L285.656 92.3439C284.814 91.481 283.783 90.8253 282.645 90.4283C281.507 90.0313 280.292 89.9038 279.096 90.0559C277.9 90.1913 276.751 90.5947 275.733 91.2361C274.715 91.8774 273.854 92.74 273.216 93.7599L233.216 157.76C232.459 158.971 232.04 160.362 232.003 161.79C231.965 163.217 232.311 164.629 233.003 165.878C233.695 167.127 234.709 168.168 235.94 168.893C237.17 169.618 238.572 170 240 170ZM281.456 110.8L298.344 127.688C299.844 129.188 301.879 130.03 304 130.03C306.121 130.03 308.156 129.188 309.656 127.688L322.096 115.248L308.448 149.368L284.8 131.6C283.527 130.646 281.999 130.092 280.41 130.011C278.821 129.93 277.244 130.324 275.88 131.144L264.424 138L281.456 110.8Z" fill="#E87637"/>
</svg>
