<svg width="512" height="512" viewBox="0 0 512 512" fill="none" xmlns="http://www.w3.org/2000/svg">
<g clip-path="url(#clip0_423_60)">
<path d="M470.695 135.582C460.756 125.01 446.46 109.823 426.845 94.1048L445.924 86.4218C453.22 83.4838 457.934 76.5028 457.934 68.6388V52.2948C457.934 46.4838 455.344 41.0548 450.83 37.3988C446.314 33.7418 440.467 32.3368 434.784 33.5428L406.762 39.4898V19.6198C406.762 13.6338 404.08 8.05377 399.406 4.30977C394.727 0.56377 388.686 -0.83023 382.836 0.48177L312.046 16.4128C303.97 18.2298 296.484 21.6278 289.906 26.2618C272.132 21.1518 253.175 16.6878 233.462 12.9978C222.566 10.9598 196.599 8.64377 182.104 7.44577C177.768 7.08577 173.438 8.55777 170.233 11.5048C167.024 14.4538 165.183 18.6478 165.183 23.0098V40.9198C165.183 49.2058 171.65 56.0578 179.901 56.5188C193.047 57.2588 220.39 60.5128 260.081 73.7458L244.327 113.271C242.95 116.721 239.218 118.6 235.658 117.647C222.97 114.24 209.638 114.921 197.451 119.48L176.116 86.0218C170.239 76.8058 160.204 71.3028 149.272 71.3028C138.34 71.3028 128.305 76.8058 122.428 86.0228L30.8368 229.65C24.4888 239.603 24.0888 251.724 29.7648 262.075C35.4408 272.426 45.8758 278.605 57.6808 278.605H211.011V321.45C211.011 327.028 211.301 332.611 211.857 338.168C199.005 329.203 185.503 318.175 178.682 303.031C176.895 299.294 172.417 297.717 168.68 299.502C164.943 301.29 163.364 305.768 165.151 309.504C174.12 330.874 197.276 346.117 214.601 358.974V504.5C214.601 508.643 217.958 512 222.101 512C226.244 512 229.601 508.643 229.601 504.5V398.265C230.506 399.429 232.616 405.948 245.251 423.184V504.5C245.251 508.643 248.608 512 252.751 512C256.894 512 260.251 508.643 260.251 504.5V440.511L317.193 501.174C323.652 508.054 332.766 512 342.2 512H342.201C351.634 512 360.749 508.054 367.21 501.173L427.8 436.623C457.199 405.299 473.391 364.396 473.391 321.45V264.975L485.589 183.125C488.183 165.723 482.753 148.393 470.695 135.582V135.582ZM437.898 48.2148C439.584 47.8518 440.812 48.5858 441.388 49.0528C441.965 49.5208 442.934 50.5638 442.934 52.2938V68.6378C442.934 70.3488 441.909 71.8668 440.321 72.5068L381.057 96.3708C378.336 97.4668 376.503 100.049 376.367 102.978L375.407 123.562C375.215 127.7 378.412 131.21 382.55 131.404C386.674 131.57 390.198 128.399 390.392 124.261L391.127 108.487L410.756 100.583C432.985 117.387 448.388 133.753 459.769 145.859C468.663 155.307 472.665 168.084 470.753 180.913L464.509 222.812C456.105 203.892 442.092 187.556 424.014 176.552L385.264 152.948C384.102 152.209 382.723 151.781 381.244 151.781C377.883 151.781 374.932 154.018 374.023 157.255C373.115 160.492 374.471 163.938 377.342 165.687L416.212 189.364C438.185 202.739 453.127 225.338 457.24 250.391C435.164 238.545 409.487 234.703 387.2 247.716C379.023 206.507 358.147 183.115 341.269 170.491C332.41 163.929 321.526 157.783 309.425 153.979L329.321 85.6178C332.069 76.1778 339.751 69.0448 349.369 67.0038L437.898 48.2148ZM180.739 41.5418C180.427 41.5238 180.181 41.2508 180.181 40.9198V23.0098C180.181 22.9418 180.181 22.7328 180.381 22.5488C180.573 22.3708 180.775 22.3868 180.853 22.3948C192.303 23.3408 220.082 25.7558 230.702 27.7428C246.785 30.7528 262.34 34.2878 277.128 38.2718C273.351 42.9978 270.226 48.2968 267.924 54.0628L265.641 59.7918C223.849 45.7798 194.734 42.3298 180.739 41.5418ZM231.772 132.134C242.681 135.055 254.067 129.332 258.258 118.826L281.857 59.6188C287.634 45.1438 300.151 34.4638 315.337 31.0468L386.122 15.1168C388.008 14.6918 389.382 15.5008 390.03 16.0188C390.676 16.5368 391.76 17.6918 391.76 19.6188V42.6718L346.257 52.3288C331.223 55.5188 319.215 66.6688 314.92 81.4258L293.665 154.455L258.934 176.408C252.889 180.228 247.291 184.664 242.184 189.629L205.751 132.495C214.171 129.981 223.166 129.823 231.772 132.134V132.134ZM42.9168 254.863C39.9148 249.389 40.1268 242.978 43.4828 237.715L135.073 94.0878C138.228 89.1408 143.403 86.3028 149.27 86.3028C155.137 86.3028 160.312 89.1408 163.467 94.0868L255.057 237.715C258.413 242.979 258.625 249.39 255.623 254.863C252.621 260.336 247.102 263.605 240.859 263.605H57.6808C51.4378 263.605 45.9188 260.337 42.9168 254.863V254.863ZM416.863 426.357L356.274 490.906C352.585 494.836 347.586 497 342.201 497C336.816 497 331.819 494.836 328.131 490.907L267.537 426.354C264.448 423.067 261.461 419.584 258.655 416.003C244.396 397.804 234.296 376.244 229.444 353.654C229.434 353.605 229.42 353.556 229.409 353.507C229.402 353.478 229.395 353.448 229.388 353.419C229.381 353.393 229.376 353.366 229.369 353.341C227.141 342.878 226.012 332.151 226.012 321.449V278.604H240.862C252.667 278.604 263.102 272.424 268.778 262.074C274.454 251.724 274.053 239.602 267.706 229.649L250.45 202.588C255.382 197.441 260.907 192.907 266.95 189.089L301.443 167.286C312.345 170.574 319.976 173.553 332.863 182.939C355.875 200.427 369.774 226.804 374.211 261.328L362.123 337.812L335.587 387.516C333.636 391.17 335.017 395.713 338.671 397.664C339.796 398.265 341.005 398.55 342.196 398.55C344.876 398.55 347.468 397.11 348.819 394.58L369.93 355.038L376.672 365.537C378.105 367.768 380.522 368.985 382.989 368.985C384.377 368.985 385.781 368.6 387.035 367.795C390.52 365.558 391.531 360.917 389.293 357.432L377.188 338.581L388.824 264.957C404.73 251.372 429.6 249.68 458.392 268.448V321.449C458.391 360.568 443.643 397.825 416.863 426.357V426.357Z" fill="#E87637"/>
<path d="M149.271 235.836C153.402 235.836 156.75 232.487 156.75 228.357C156.75 224.226 153.402 220.878 149.271 220.878C145.14 220.878 141.792 224.226 141.792 228.357C141.792 232.487 145.14 235.836 149.271 235.836Z" fill="#E87637"/>
<path d="M149.271 129.513C145.128 129.513 141.771 132.87 141.771 137.013V192.311C141.771 196.454 145.128 199.811 149.271 199.811C153.414 199.811 156.771 196.454 156.771 192.311V137.013C156.771 132.871 153.413 129.513 149.271 129.513Z" fill="#E87637"/>
</g>
<defs>
<clipPath id="clip0_423_60">
<rect width="512" height="512" fill="white"/>
</clipPath>
</defs>
</svg>
