<svg width="512" height="512" viewBox="0 0 512 512" fill="none" xmlns="http://www.w3.org/2000/svg">
<g clip-path="url(#clip0_423_66)">
<path d="M235.324 511.556C247.216 511.706 259.029 509.616 270.148 505.395C295.322 495.539 313.89 473.958 326.912 439.415C328.492 435.029 326.258 430.187 321.896 428.541C317.534 426.895 312.658 429.054 310.946 433.391C299.563 463.565 284.621 481.399 263.927 489.506C234.914 500.847 194.176 493.047 139.341 465.613C61.2295 428.843 13.0878 348.51 17.4933 262.289C18.6333 241.552 24.1809 221.296 33.7664 202.871C34.7584 201.872 35.4781 200.635 35.857 199.279C46.6897 179.971 64.2167 165.298 85.1285 158.029C98.5794 153.246 112.892 151.373 127.121 152.533C136.416 153.415 145.48 155.944 153.89 160C198.17 181.478 215.458 240.094 215.629 240.691C216.925 245.223 221.649 247.845 226.18 246.549C230.712 245.253 233.334 240.529 232.038 235.998C231.313 233.438 214.801 177.118 170.419 149.658C192.307 122.812 248.764 69.3504 334.353 97.4251C337.015 98.2784 339.686 99.3877 342.349 100.403C336.708 105.972 332.387 112.734 329.702 120.192C326.76 127.815 325.644 136.021 326.443 144.154C287.659 135.765 263.04 142.865 248.713 151.108C243.34 153.975 238.571 157.852 234.667 162.526C232.782 165.111 232.502 168.532 233.941 171.39C235.379 174.247 238.295 176.059 241.493 176.085C244.128 176.087 246.619 174.887 248.26 172.826C250.372 170.569 252.788 168.616 255.437 167.023C287.095 165.316 319.565 209.835 330.061 269.756C330.773 273.837 334.315 276.817 338.458 276.821C338.952 276.821 339.446 276.778 339.934 276.693C344.576 275.882 347.682 271.462 346.871 266.82C337.852 215.04 313.643 174.413 285.013 157.867C304.335 156.829 323.674 159.568 341.948 165.931H342.093C343.883 166.479 345.742 166.767 347.614 166.784C359.791 166.784 372.361 155.691 378.82 138.266C382.076 129.905 383.093 120.84 381.773 111.966C380.826 104.105 376.058 97.2191 369.033 93.568C359.611 88.5964 349.771 84.4617 339.627 81.2117C262.101 55.7824 206.191 90.0608 174.933 119.765C178.076 98.2237 179.503 76.4663 179.2 54.6987V26.1973C179.2 8.99413 153.429 0 128 0C102.571 0 76.8 9.00267 76.8 26.2059C76.8 32.3243 76.8853 38.0331 76.9706 43.2725C77.1072 52.4117 77.2266 60.3392 76.817 66.5003C76.3136 74.112 73.5744 99.6864 59.4944 109.286C31.6371 128.105 16.1758 160.55 19.1061 194.039C8.12813 214.794 1.77042 237.677 0.469299 261.12C-4.42337 354.214 47.4195 441.037 131.695 480.887C172.672 501.385 206.933 511.556 235.324 511.556V511.556ZM362.863 132.437C358.204 145.084 349.781 150.801 346.769 149.649C343.757 148.497 341.043 138.743 345.711 126.106C347.636 120.482 350.967 115.445 355.388 111.471C356.933 110.016 358.892 109.076 360.994 108.783C361.27 108.774 361.545 108.817 361.805 108.911C363.196 109.423 364.45 111.821 365.013 115.029C365.789 120.92 365.049 126.912 362.863 132.437V132.437ZM128 17.0667C148.599 17.0667 160.427 23.4496 162.048 26.2059C160.427 29.0133 148.599 35.3536 128 35.3536C106.846 35.3536 94.9333 28.6208 93.8666 26.5131V26.4533C94.9333 23.7995 106.846 17.0667 128 17.0667V17.0667ZM69.12 123.418C89.0026 109.858 93.0133 79.8976 93.8666 67.6693C94.2677 61.5851 94.2165 54.4 94.097 46.2677C104.89 50.5068 116.406 52.5968 128 52.4203C139.677 52.6029 151.276 50.4833 162.133 46.1824V54.7157C163.142 83.7907 159.981 112.86 152.747 141.039C145.038 138.189 136.992 136.35 128.811 135.569C112.201 134.171 95.4828 136.311 79.761 141.85C64.1254 147.108 49.9755 156.032 38.4938 167.876C42.5545 149.647 53.5349 133.708 69.12 123.418V123.418Z" fill="#E87637"/>
<path d="M90.5132 174.217C58.6583 184.858 37.7175 218.24 34.5175 263.492C34.3556 265.751 35.0983 267.982 36.582 269.693C38.0657 271.404 40.1688 272.455 42.4279 272.614H43.0337C47.5197 272.626 51.2486 269.162 51.5671 264.687C54.2636 226.543 70.8524 198.767 95.9404 190.387C98.8366 189.421 100.997 186.983 101.608 183.991C102.22 181 101.188 177.91 98.9034 175.885C96.6183 173.86 93.4265 173.208 90.5303 174.174L90.5132 174.217Z" fill="#E87637"/>
<path d="M484.693 131.413C481.865 127.643 476.517 126.879 472.746 129.707L370.346 206.507C368.476 207.91 367.264 210.02 366.993 212.343C366.722 214.666 367.416 216.998 368.913 218.795L404.864 261.973L286.114 325.274C283.375 326.683 281.608 329.458 281.491 332.536C281.373 335.613 282.923 338.515 285.546 340.129C288.169 341.743 291.458 341.819 294.152 340.326L422.152 272.06C424.419 270.855 426.024 268.693 426.52 266.175C427.017 263.656 426.353 261.047 424.712 259.072L387.797 214.767L482.986 143.36C484.797 142.002 485.994 139.981 486.314 137.74C486.634 135.5 486.051 133.224 484.693 131.413V131.413Z" fill="#E87637"/>
<path d="M504.679 368.819L397.389 353.459C395.072 353.119 392.717 353.756 390.887 355.217C389.05 356.668 387.89 358.809 387.678 361.139L383.522 406.895L276.002 374.187C271.532 372.927 266.876 375.473 265.524 379.916C264.172 384.359 266.622 389.068 271.036 390.511L388.548 426.274C391.006 427.022 393.669 426.622 395.8 425.187C397.93 423.752 399.3 421.434 399.531 418.876L403.798 371.627L502.255 385.707C505.314 386.23 508.416 385.051 510.356 382.629C512.295 380.206 512.767 376.921 511.587 374.051C510.407 371.18 507.761 369.177 504.679 368.819V368.819Z" fill="#E87637"/>
<path d="M212.292 297.626C215.526 294.277 215.48 288.955 212.188 285.663C208.897 282.372 203.574 282.326 200.226 285.559C160.069 325.818 160.069 390.982 200.226 431.241C203.574 434.474 208.897 434.428 212.188 431.137C215.48 427.845 215.526 422.523 212.292 419.174C178.788 385.584 178.788 331.216 212.292 297.626Z" fill="#E87637"/>
<path d="M236.433 309.7C233.101 306.369 227.699 306.369 224.367 309.7C197.514 336.614 197.514 380.186 224.367 407.1C227.715 410.333 233.038 410.287 236.329 406.996C239.621 403.704 239.667 398.382 236.433 395.033C216.233 374.788 216.233 342.012 236.433 321.766C239.765 318.434 239.765 313.032 236.433 309.7V309.7Z" fill="#E87637"/>
</g>
<defs>
<clipPath id="clip0_423_66">
<rect width="512" height="512" fill="white"/>
</clipPath>
</defs>
</svg>
