<svg width="512" height="512" viewBox="0 0 512 512" fill="none" xmlns="http://www.w3.org/2000/svg">
<path d="M476.92 112H409.816C382.456 111.944 355.705 120.071 333 135.336C310.295 150.601 292.674 172.307 282.4 197.664C280.35 192.155 277.12 187.161 272.936 183.032C267.686 177.603 260.966 173.824 253.6 172.16C251.493 171.75 249.344 171.591 247.2 171.688C299.497 133.938 342.984 85.2944 374.664 29.1121L384.328 11.9201L370.4 4.08008L360.712 21.2641C322.226 89.6947 265.749 146.29 197.4 184.92C144.809 214.747 99.3322 255.652 64.1198 304.8L1.48779 392.48L14.5118 401.776L35.3118 372.68C36.463 374.189 37.711 375.621 39.0478 376.968C44.3027 382.399 51.0284 386.177 58.3998 387.84C60.1718 388.202 61.9753 388.387 63.7838 388.392C66.5115 388.463 69.226 387.99 71.7686 386.999C74.3112 386.009 76.6308 384.521 78.5918 382.624C81.0862 379.96 82.8733 376.713 83.7901 373.18C84.7068 369.647 84.7239 365.941 83.8398 362.4C82.1833 355.014 78.4077 348.272 72.9758 343C69.7891 339.832 66.1126 337.198 62.0878 335.2L77.1358 314.136C86.9221 300.521 97.5649 287.543 109 275.28C114.841 278.412 121.372 280.035 128 280C145.944 280 160 269.464 160 256C159.863 252.246 158.765 248.589 156.811 245.38C154.857 242.171 152.112 239.517 148.84 237.672C166.496 223.126 185.377 210.134 205.272 198.84C213.392 194.256 221.312 189.352 229.096 184.28C227.512 190.112 227.604 196.272 229.361 202.053C231.119 207.835 234.47 213.004 239.032 216.968C244.29 222.403 251.022 226.182 258.4 227.84C260.172 228.202 261.975 228.387 263.784 228.392C267.444 228.412 271.05 227.504 274.264 225.752C272.802 233.691 272.044 241.744 272 249.816C271.998 278.421 264.052 306.462 249.048 330.816C196.475 375.728 158.466 435.277 139.864 501.872L155.288 506.128C178.645 422.359 233.965 351.112 309.336 307.728C375.538 269.828 431.256 216.032 471.456 151.2L510.8 87.6401L497.2 79.2001L476.92 112ZM61.6558 354.344C68.5598 361.248 69.6558 369.008 67.3118 371.312C66.4836 371.885 65.5348 372.259 64.5387 372.406C63.5426 372.553 62.5261 372.469 61.5678 372.16C57.2914 371.103 53.4058 368.846 50.3678 365.656C48.31 363.614 46.6115 361.239 45.3438 358.632L52.5918 348.496C56.0064 349.755 59.1013 351.752 61.6558 354.344V354.344ZM144 256C144 259.264 137.768 264 128 264C125.561 263.997 123.136 263.642 120.8 262.944C125.552 258.232 130.4 253.616 135.376 249.144C140.584 250.704 144 253.6 144 256ZM267.312 211.312C266.484 211.886 265.535 212.261 264.539 212.408C263.543 212.555 262.526 212.47 261.568 212.16C257.291 211.103 253.406 208.846 250.368 205.656C243.464 198.752 242.368 190.992 244.712 188.688C245.684 187.893 246.924 187.504 248.176 187.6C248.942 187.606 249.705 187.686 250.456 187.84C254.732 188.898 258.618 191.154 261.656 194.344C268.56 201.248 269.6 209.008 267.312 211.312V211.312ZM301.4 293.84C293.136 298.568 285.144 303.704 277.336 309.088C284.381 290.121 287.992 270.05 288 249.816C287.999 233.819 291.149 217.978 297.27 203.198C303.392 188.418 312.365 174.989 323.677 163.677C334.988 152.365 348.418 143.392 363.198 137.271C377.977 131.149 393.818 127.999 409.816 128H467.008L457.848 142.8C419.055 205.361 365.287 257.272 301.4 293.84V293.84Z" fill="#E87637"/>
<path d="M485.064 159.64C443.451 226.723 385.785 282.385 317.272 321.6C248.078 361.045 196.566 425.435 173.272 501.6L188.56 506.304C210.674 434.036 259.553 372.943 325.208 335.512C396.039 294.972 455.654 237.423 498.664 168.064L510.8 148.464L497.2 140.04L485.064 159.64Z" fill="#E87637"/>
<path d="M51.1038 295.504C87.6661 244.456 134.89 201.968 189.504 170.984C255.321 133.799 309.706 79.3108 346.768 13.4241L347.616 11.9201L333.664 4.08008L332.8 5.60008C297.164 68.9444 244.876 121.332 181.6 157.088C124.967 189.214 75.9955 233.268 38.0798 286.2L1.48779 337.4L14.5118 346.696L51.1038 295.504Z" fill="#E87637"/>
<path d="M133.6 380.16C130.066 379.277 126.368 379.292 122.841 380.203C119.315 381.114 116.072 382.892 113.408 385.376C103.888 394.888 106.376 412.28 119.064 424.968C124.313 430.397 131.034 434.176 138.4 435.84C140.172 436.202 141.975 436.386 143.784 436.392C146.512 436.463 149.226 435.989 151.769 434.999C154.311 434.009 156.631 432.521 158.592 430.624C168.112 421.112 165.624 403.72 152.936 391.032C147.685 385.604 140.966 381.826 133.6 380.16V380.16ZM147.344 419.312C146.516 419.886 145.567 420.261 144.571 420.408C143.575 420.555 142.558 420.47 141.6 420.16C137.324 419.102 133.438 416.846 130.4 413.656C123.496 406.752 122.44 398.992 124.744 396.688C125.716 395.893 126.956 395.504 128.208 395.6C128.974 395.606 129.738 395.686 130.488 395.84C134.764 396.897 138.65 399.154 141.688 402.344C148.56 409.248 149.6 417.008 147.312 419.312H147.344Z" fill="#E87637"/>
<path d="M126.832 304.552C119.443 306.211 112.7 309.993 107.432 315.432C94.7439 328.12 92.2319 345.504 101.768 355.024C103.73 356.922 106.051 358.409 108.595 359.399C111.139 360.39 113.855 360.863 116.584 360.792C118.392 360.787 120.196 360.602 121.968 360.24C129.355 358.581 136.097 354.802 141.368 349.368C154.056 336.68 156.568 319.288 147.024 309.776C144.362 307.289 141.12 305.507 137.593 304.595C134.066 303.682 130.366 303.668 126.832 304.552V304.552ZM130.032 338.056C126.994 341.245 123.108 343.499 118.832 344.552C117.875 344.867 116.858 344.954 115.861 344.808C114.864 344.663 113.915 344.287 113.088 343.712C110.776 341.408 111.832 333.648 118.744 326.744C121.781 323.553 125.667 321.296 129.944 320.24C130.7 320.085 131.469 320.005 132.24 320C133.494 319.902 134.738 320.292 135.712 321.088C138.016 323.392 136.96 331.152 130.056 338.056H130.032Z" fill="#E87637"/>
<path d="M152 344C152 357.464 166.056 368 184 368C201.944 368 216 357.464 216 344C216 330.536 201.944 320 184 320C166.056 320 152 330.536 152 344ZM200 344C200 347.264 193.768 352 184 352C174.232 352 168 347.264 168 344C168 340.736 174.232 336 184 336C193.768 336 200 340.736 200 344Z" fill="#E87637"/>
<path d="M213.6 291.84C220.988 290.186 227.732 286.406 233 280.968C245.688 268.28 248.2 250.888 238.664 241.376C235.994 238.878 232.739 237.091 229.198 236.18C225.657 235.268 221.944 235.262 218.4 236.16C211.01 237.812 204.267 241.592 199 247.032C186.312 259.72 183.8 277.112 193.336 286.624C195.299 288.521 197.62 290.008 200.164 290.998C202.707 291.988 205.423 292.462 208.152 292.392C209.982 292.391 211.807 292.206 213.6 291.84V291.84ZM204.72 275.312C202.416 273.008 203.472 265.248 210.376 258.344C213.414 255.154 217.299 252.897 221.576 251.84C222.324 251.687 223.084 251.606 223.848 251.6C225.102 251.502 226.346 251.892 227.32 252.688C229.624 254.992 228.568 262.752 221.664 269.656C218.626 272.846 214.74 275.102 210.464 276.16C209.501 276.477 208.478 276.565 207.476 276.418C206.473 276.27 205.519 275.892 204.688 275.312H204.72Z" fill="#E87637"/>
<path d="M61.5998 475.84C68.9891 474.187 75.733 470.408 80.9998 464.968C93.6878 452.28 96.1998 434.888 86.6638 425.376C83.9934 422.879 80.7384 421.093 77.1977 420.181C73.6569 419.27 69.944 419.262 66.3998 420.16C59.0105 421.813 52.2665 425.592 46.9998 431.032C34.3118 443.72 31.7998 461.112 41.3358 470.624C43.2988 472.521 45.6199 474.008 48.1637 474.998C50.7074 475.988 53.4229 476.462 56.1518 476.392C57.9817 476.391 59.8068 476.206 61.5998 475.84V475.84ZM52.7198 459.312C50.4158 457.008 51.4718 449.248 58.3758 442.344C61.4138 439.154 65.2994 436.898 69.5758 435.84C70.3262 435.686 71.0898 435.606 71.8558 435.6C73.1074 435.504 74.348 435.893 75.3198 436.688C77.6238 438.992 76.5678 446.752 69.6638 453.656C66.6258 456.846 62.7402 459.103 58.4638 460.16C57.5013 460.477 56.4782 460.566 55.4756 460.419C54.4729 460.271 53.5184 459.893 52.6878 459.312H52.7198Z" fill="#E87637"/>
<path d="M394.4 44.16C387.01 45.8126 380.267 49.592 375 55.032C362.312 67.72 359.8 85.112 369.336 94.624C371.299 96.5209 373.62 98.0078 376.164 98.9981C378.707 99.9884 381.423 100.462 384.152 100.392C385.96 100.387 387.764 100.202 389.536 99.84C396.925 98.1875 403.669 94.4081 408.936 88.968C421.624 76.28 424.136 58.888 414.6 49.376C411.934 46.893 408.689 45.1153 405.162 44.2044C401.634 43.2935 397.935 43.2782 394.4 44.16V44.16ZM397.6 77.656C394.562 80.8461 390.676 83.1025 386.4 84.16C385.442 84.472 384.425 84.5578 383.428 84.4107C382.432 84.2636 381.483 83.8875 380.656 83.312C378.352 81.008 379.408 73.248 386.312 66.344C389.35 63.154 393.235 60.8975 397.512 59.84C398.262 59.6864 399.026 59.606 399.792 59.6C401.043 59.5037 402.284 59.8933 403.256 60.688C405.6 62.992 404.56 70.752 397.656 77.656H397.6Z" fill="#E87637"/>
<path d="M432 40C432 53.464 446.056 64 464 64C481.944 64 496 53.464 496 40C496 26.536 481.944 16 464 16C446.056 16 432 26.536 432 40ZM480 40C480 43.264 473.768 48 464 48C454.232 48 448 43.264 448 40C448 36.736 454.232 32 464 32C473.768 32 480 36.736 480 40Z" fill="#E87637"/>
<path d="M399.8 390.264L383.8 318.264C383.432 316.612 382.55 315.12 381.28 314.002C380.011 312.883 378.42 312.195 376.735 312.038C375.05 311.881 373.359 312.262 371.905 313.126C370.45 313.99 369.307 315.293 368.64 316.848L346.056 369.544L325.464 376.416C324.014 376.899 322.732 377.786 321.771 378.975C320.81 380.163 320.209 381.601 320.04 383.12L312.04 455.12C311.84 456.938 312.269 458.77 313.256 460.31C314.243 461.85 315.728 463.006 317.464 463.584L365.464 479.584C366.28 479.861 367.137 480.001 368 480C369.134 480 370.255 479.758 371.289 479.292C372.322 478.825 373.245 478.144 373.995 477.294C374.746 476.443 375.307 475.443 375.641 474.359C375.976 473.276 376.076 472.133 375.936 471.008L368.64 412.608L395.568 399.2C397.172 398.4 398.462 397.084 399.229 395.464C399.997 393.844 400.198 392.012 399.8 390.264V390.264ZM356.424 400.84C354.943 401.58 353.728 402.762 352.947 404.222C352.166 405.683 351.857 407.349 352.064 408.992L358.464 460.4L328.64 450.456L335.36 389.968L354.504 383.568C355.57 383.209 356.549 382.628 357.377 381.864C358.204 381.101 358.86 380.171 359.304 379.136L373.6 345.968L382.848 387.64L356.424 400.84Z" fill="#E87637"/>
<path d="M465.496 366.896L479.2 339.576C479.895 338.184 480.17 336.619 479.989 335.073C479.809 333.527 479.181 332.067 478.184 330.872L438.184 282.872C437.068 281.534 435.547 280.596 433.85 280.201C432.153 279.807 430.374 279.976 428.783 280.685C427.191 281.394 425.875 282.603 425.033 284.128C424.192 285.653 423.871 287.412 424.12 289.136L431.688 342.104L417.376 363.552C416.536 364.788 416.06 366.235 416 367.728C415.941 369.221 416.301 370.701 417.04 372L449.04 428C449.744 429.221 450.759 430.234 451.982 430.936C453.204 431.639 454.59 432.006 456 432C456.537 432.004 457.074 431.951 457.6 431.84L497.6 423.84C498.959 423.568 500.225 422.948 501.273 422.039C502.321 421.13 503.114 419.965 503.575 418.657C504.037 417.35 504.15 415.944 503.905 414.58C503.66 413.215 503.064 411.937 502.176 410.872L465.496 366.896ZM460.088 415.024L433.392 368.32L446.656 348.44C447.755 346.794 448.206 344.799 447.92 342.84L443.92 314.768L462.52 337.08L448.856 364.4C448.16 365.792 447.885 367.357 448.066 368.904C448.246 370.45 448.874 371.909 449.872 373.104L481.264 410.768L460.088 415.024Z" fill="#E87637"/>
</svg>
