<svg width="512" height="512" viewBox="0 0 512 512" fill="none" xmlns="http://www.w3.org/2000/svg">
<g clip-path="url(#clip0_423_49)">
<path d="M249.344 264.533H256C258.263 264.533 260.434 263.634 262.034 262.034C263.634 260.434 264.533 258.263 264.533 256C264.533 253.737 263.634 251.566 262.034 249.966C260.434 248.366 258.263 247.467 256 247.467L249.173 248.021L255.667 224.128C255.975 223.042 256.065 221.906 255.931 220.785C255.797 219.664 255.442 218.581 254.886 217.598C254.331 216.616 253.586 215.753 252.695 215.06C251.803 214.368 250.783 213.859 249.694 213.563C248.605 213.267 247.467 213.19 246.348 213.337C245.229 213.484 244.15 213.851 243.174 214.418C242.197 214.985 241.343 215.74 240.661 216.639C239.978 217.538 239.481 218.564 239.198 219.657L232.576 244.139C232.083 246.616 232.147 249.172 232.762 251.622C233.377 254.072 234.528 256.354 236.132 258.305C237.736 260.257 239.753 261.827 242.038 262.904C244.323 263.981 246.818 264.538 249.344 264.533Z" fill="#E87637"/>
<path d="M219.366 207.3C217.766 205.7 215.596 204.802 213.333 204.802C211.071 204.802 208.9 205.7 207.3 207.3L204.8 209.8L202.3 207.3C200.69 205.746 198.535 204.886 196.297 204.905C194.06 204.925 191.92 205.822 190.337 207.404C188.755 208.986 187.858 211.127 187.838 213.364C187.819 215.601 188.679 217.757 190.234 219.366L192.734 221.867L190.234 224.367C189.419 225.154 188.768 226.096 188.321 227.137C187.874 228.178 187.639 229.298 187.629 230.431C187.619 231.564 187.835 232.687 188.264 233.736C188.693 234.785 189.327 235.738 190.128 236.539C190.929 237.34 191.882 237.974 192.93 238.403C193.979 238.832 195.103 239.048 196.236 239.038C197.369 239.028 198.489 238.793 199.53 238.345C200.571 237.898 201.513 237.248 202.3 236.433L204.8 233.933L207.3 236.433C208.91 237.987 211.065 238.848 213.303 238.828C215.54 238.809 217.68 237.911 219.262 236.329C220.845 234.747 221.742 232.607 221.761 230.369C221.781 228.132 220.921 225.976 219.366 224.367L216.866 221.867L219.366 219.366C220.966 217.766 221.865 215.596 221.865 213.333C221.865 211.071 220.966 208.9 219.366 207.3Z" fill="#E87637"/>
<path d="M321.766 207.3C320.166 205.7 317.996 204.802 315.733 204.802C313.471 204.802 311.301 205.7 309.7 207.3L307.2 209.8L304.7 207.3C303.09 205.746 300.935 204.886 298.697 204.905C296.46 204.925 294.32 205.822 292.738 207.404C291.155 208.986 290.258 211.127 290.239 213.364C290.219 215.601 291.079 217.757 292.634 219.366L295.134 221.867L292.634 224.367C291.819 225.154 291.169 226.096 290.721 227.137C290.274 228.178 290.039 229.298 290.029 230.431C290.019 231.564 290.235 232.687 290.664 233.736C291.093 234.785 291.727 235.738 292.528 236.539C293.329 237.34 294.282 237.974 295.331 238.403C296.379 238.832 297.503 239.048 298.636 239.038C299.769 239.028 300.889 238.793 301.93 238.345C302.971 237.898 303.913 237.248 304.7 236.433L307.2 233.933L309.7 236.433C311.31 237.987 313.465 238.848 315.703 238.828C317.94 238.809 320.08 237.911 321.663 236.329C323.245 234.747 324.142 232.607 324.162 230.369C324.181 228.132 323.321 225.976 321.766 224.367L319.266 221.867L321.766 219.366C323.366 217.766 324.265 215.596 324.265 213.333C324.265 211.071 323.366 208.9 321.766 207.3V207.3Z" fill="#E87637"/>
<path d="M256 281.6C250.692 281.405 245.402 282.326 240.472 284.303C235.542 286.28 231.082 289.269 227.379 293.077C225.978 294.796 225.302 296.993 225.493 299.203C225.684 301.412 226.727 303.46 228.402 304.914C230.077 306.367 232.252 307.111 234.467 306.988C236.681 306.865 238.76 305.885 240.265 304.256C242.377 302.314 244.859 300.818 247.563 299.858C250.266 298.897 253.136 298.492 256 298.666C258.864 298.492 261.734 298.897 264.437 299.858C267.141 300.818 269.623 302.314 271.736 304.256C272.457 305.142 273.35 305.874 274.36 306.408C275.37 306.942 276.477 307.268 277.616 307.367C278.754 307.465 279.901 307.334 280.988 306.981C282.075 306.628 283.079 306.06 283.943 305.311C284.806 304.562 285.51 303.647 286.013 302.621C286.516 301.595 286.808 300.479 286.871 299.338C286.934 298.197 286.768 297.054 286.381 295.979C285.995 294.904 285.396 293.917 284.621 293.077C280.918 289.269 276.458 286.28 271.528 284.303C266.598 282.326 261.308 281.405 256 281.6Z" fill="#E87637"/>
<path d="M414.985 58.7178C424.977 48.3583 428.74 38.1013 425.574 28.4586C415.445 -3.20006 336.939 -5.85393 256 7.60314C175.027 -5.85393 96.5547 -3.19153 86.4427 28.3903C82.9184 39.1253 87.7654 49.3994 96.9131 58.7775C83.6925 65.5031 72.3061 75.3433 63.7355 87.4495C61.7857 90.4731 60.5157 93.8841 60.0133 97.4466C59.5108 101.009 59.788 104.638 60.8256 108.083C67.2171 127.898 99.1232 134.357 128.026 136.047C128.026 136.209 128.026 136.371 128.026 136.533C128.026 219.878 136.166 240.043 137.412 242.577C138.354 248.287 140.596 253.704 143.965 258.409C147.334 263.115 151.74 266.982 156.843 269.713C160.082 287.008 169.184 302.658 182.613 314.027C191.522 320.708 198.554 326.724 204.8 332.16V377.105L159.522 386.799C138.563 391.384 119.793 402.975 106.306 419.66C92.8193 436.346 85.4218 457.129 85.3334 478.583V486.4C85.3334 493.19 88.0305 499.701 92.8314 504.502C97.6324 509.303 104.144 512 110.933 512H401.067C407.856 512 414.368 509.303 419.169 504.502C423.97 499.701 426.667 493.19 426.667 486.4V478.583C426.578 457.128 419.179 436.343 405.691 419.658C392.202 402.972 373.43 391.382 352.469 386.799L307.2 377.105V332.16C313.446 326.724 320.478 320.708 329.387 314.01C342.826 302.65 351.939 287.006 355.192 269.713C360.038 267.136 364.259 263.526 367.556 259.137C370.853 254.749 373.146 249.69 374.272 244.318C379.46 237.722 384 217.242 384 153.6C383.978 147.688 383.186 141.805 381.645 136.098C411.989 134.63 444.698 128.23 451.157 108.126C452.204 104.676 452.487 101.04 451.988 97.4691C451.488 93.8987 450.218 90.4798 448.265 87.4495C439.67 75.3113 428.247 65.4497 414.985 58.7178V58.7178ZM409.344 33.7237C410.462 37.137 407.689 42.9909 399.317 50.3295C370.099 36.6192 339.552 25.9394 308.156 18.4575C367.155 14.0885 405.632 22.1866 409.344 33.7237ZM365.227 207.309C363.219 205.06 360.924 203.086 358.4 201.438V170.667C358.4 144.751 338.304 128 307.2 128C305.607 127.991 304.043 128.429 302.686 129.263C301.329 130.097 300.232 131.294 299.52 132.719C293.692 144.469 282.453 145.067 264.533 145.067H215.125C199.728 145.085 184.896 150.867 173.55 161.275C162.203 171.684 155.165 185.963 153.822 201.301C151.626 202.721 149.601 204.391 147.789 206.276C146.304 191.215 145.067 169.045 145.067 136.533C145.067 127.481 148.663 118.799 155.064 112.397C161.465 105.996 170.147 102.4 179.2 102.4H230.4C232.663 102.4 234.834 101.501 236.434 99.9006C238.034 98.3003 238.933 96.1298 238.933 93.8666C238.933 91.6034 238.034 89.4329 236.434 87.8326C234.834 86.2323 232.663 85.3333 230.4 85.3333H208.333L191.266 68.2666H298.667C304.889 68.2799 310.989 69.9978 316.304 73.2338C321.619 76.4697 325.946 81.1 328.815 86.6218C324.506 85.7717 320.125 85.3402 315.733 85.3333C313.47 85.3333 311.3 86.2323 309.699 87.8326C308.099 89.4329 307.2 91.6034 307.2 93.8666C307.2 96.1298 308.099 98.3003 309.699 99.9006C311.3 101.501 313.47 102.4 315.733 102.4C329.308 102.414 342.323 107.812 351.922 117.411C361.521 127.01 366.92 140.025 366.933 153.6C366.933 178.347 366.2 195.413 365.227 207.309ZM298.667 51.1999H185.259C182.372 51.194 179.549 52.0452 177.147 53.6458C174.745 55.2464 172.872 57.5242 171.766 60.1904C170.66 62.8566 170.371 65.7912 170.934 68.6221C171.498 71.453 172.89 74.0527 174.933 76.0917L184.201 85.3333H180.318C162.366 79.1132 145.062 71.1626 128.649 61.5935C161.169 47.5452 195.068 36.9318 229.794 29.9263C238.788 27.9978 247.467 26.4021 256 24.9514C264.533 26.4106 273.22 28.0063 282.232 29.9349C316.987 36.9478 350.915 47.5725 383.462 61.6362C371.119 68.9127 358.205 75.1767 344.849 80.3669C340.689 71.6416 334.145 64.272 325.972 59.1105C317.8 53.949 308.333 51.2064 298.667 51.1999V51.1999ZM102.673 33.6554C106.368 22.1354 144.819 14.0885 203.81 18.4661C172.465 25.9366 141.967 36.5962 112.794 50.2783C104.653 43.1786 101.478 37.3077 102.673 33.6554ZM77.0731 102.775C76.8512 102.101 76.2198 100.036 78.5408 95.9488C87.0738 84.9037 98.1802 76.1147 110.891 70.3488C124.072 79.1831 138.092 86.6974 152.747 92.7829C142.751 98.843 135.123 108.133 131.123 119.117C92.2112 117.197 78.7798 108.143 77.056 102.81L77.0731 102.775ZM221.867 346.334C231.53 354.141 243.577 358.399 256 358.399C268.423 358.399 280.47 354.141 290.133 346.334V382.362C286.944 388.516 281.994 393.581 275.915 396.913C269.837 400.244 262.904 401.69 256 401.067C249.096 401.678 242.166 400.225 236.089 396.892C230.012 393.558 225.062 388.495 221.867 382.344V346.334ZM409.6 478.6V486.4C409.6 488.663 408.701 490.834 407.101 492.434C405.5 494.034 403.33 494.933 401.067 494.933H366.933V460.8C366.933 458.537 366.034 456.366 364.434 454.766C362.834 453.166 360.663 452.267 358.4 452.267C356.137 452.267 353.966 453.166 352.366 454.766C350.766 456.366 349.867 458.537 349.867 460.8V494.933H162.133V460.8C162.133 458.537 161.234 456.366 159.634 454.766C158.034 453.166 155.863 452.267 153.6 452.267C151.337 452.267 149.166 453.166 147.566 454.766C145.966 456.366 145.067 458.537 145.067 460.8V494.933H110.933C108.67 494.933 106.5 494.034 104.899 492.434C103.299 490.834 102.4 488.663 102.4 486.4V478.583C102.475 461.031 108.528 444.029 119.562 430.378C130.596 416.727 145.951 407.244 163.098 403.49L208.683 393.728C213.643 401.678 220.657 408.142 228.985 412.438C237.313 416.733 246.647 418.701 256 418.133C265.354 418.7 274.688 416.731 283.016 412.434C291.345 408.137 298.358 401.671 303.317 393.719L348.894 403.482C366.043 407.234 381.402 416.718 392.437 430.371C403.473 444.023 409.527 461.029 409.6 478.583V478.6ZM345.353 255.343C343.864 255.792 342.527 256.639 341.485 257.792C340.442 258.946 339.735 260.362 339.439 261.888C337.317 276.673 330.148 290.27 319.147 300.373C308.608 308.275 300.629 315.221 293.598 321.357C278.34 334.66 270.686 341.333 256 341.333C241.314 341.333 233.66 334.66 218.402 321.357C211.371 315.221 203.392 308.275 192.879 300.39C181.864 290.287 174.686 276.683 172.561 261.888C172.265 260.362 171.558 258.946 170.516 257.792C169.473 256.639 168.136 255.792 166.647 255.343C162.599 253.673 159.168 250.787 156.831 247.083C154.494 243.379 153.365 239.04 153.6 234.667C153.402 230.535 154.403 226.434 156.481 222.858C158.56 219.282 161.628 216.383 165.316 214.511C166.897 213.876 168.251 212.782 169.204 211.371C170.158 209.959 170.667 208.295 170.667 206.592C170.68 194.805 175.369 183.505 183.703 175.17C192.038 166.835 203.338 162.147 215.125 162.133H264.533C280.661 162.133 300.373 162.133 311.97 145.246C323.413 146.108 341.333 150.656 341.333 170.667V206.592C341.333 208.295 341.842 209.959 342.796 211.371C343.75 212.782 345.104 213.876 346.684 214.511C350.372 216.383 353.44 219.282 355.519 222.858C357.598 226.434 358.598 230.535 358.4 234.667C358.635 239.04 357.506 243.379 355.169 247.083C352.832 250.787 349.402 253.673 345.353 255.343ZM434.953 102.861C433.118 108.544 418.227 118.11 374.665 119.262C369.107 109.768 361.348 101.749 352.043 95.8805C369.328 89.2597 385.803 80.6941 401.152 70.3488C413.863 76.1147 424.969 84.9037 433.502 95.9488C435.84 100.07 435.2 102.135 434.927 102.861H434.953Z" fill="#E87637"/>
<path d="M87.8337 185.233C89.4431 186.787 91.5986 187.647 93.836 187.628C96.0734 187.608 98.2137 186.711 99.7958 185.129C101.378 183.547 102.275 181.406 102.295 179.169C102.314 176.932 101.454 174.776 99.8998 173.167L97.3995 170.666L99.8998 168.166C101.454 166.557 102.314 164.401 102.295 162.164C102.275 159.926 101.378 157.786 99.7958 156.204C98.2137 154.622 96.0734 153.724 93.836 153.705C91.5986 153.685 89.4431 154.546 87.8337 156.1L85.3334 158.6L82.8331 156.1C81.2237 154.546 79.0682 153.685 76.8308 153.705C74.5934 153.724 72.4531 154.622 70.8709 156.204C69.2888 157.786 68.3914 159.926 68.3719 162.164C68.3525 164.401 69.2126 166.557 70.767 168.166L73.2673 170.666L70.767 173.167C69.952 173.954 69.3019 174.895 68.8547 175.937C68.4074 176.978 68.172 178.097 68.1622 179.23C68.1523 180.364 68.3683 181.487 68.7973 182.536C69.2264 183.585 69.86 184.537 70.6612 185.339C71.4624 186.14 72.4152 186.773 73.4639 187.202C74.5126 187.632 75.6363 187.847 76.7693 187.838C77.9024 187.828 79.0221 187.592 80.0632 187.145C81.1043 186.698 82.046 186.048 82.8331 185.233L85.3334 182.733L87.8337 185.233Z" fill="#E87637"/>
<path d="M57.233 19.5668C55.6328 17.967 53.4627 17.0684 51.2 17.0684C48.9372 17.0684 46.7671 17.967 45.1669 19.5668L42.6666 22.0671L40.1664 19.5668C38.557 18.0124 36.4014 17.1523 34.164 17.1717C31.9266 17.1912 29.7863 18.0886 28.2042 19.6708C26.622 21.2529 25.7246 23.3932 25.7052 25.6306C25.6857 27.868 26.5458 30.0235 28.1002 31.6329L30.6005 34.1332L28.1002 36.6335C27.2852 37.4206 26.6351 38.3623 26.1879 39.4034C25.7407 40.4445 25.5053 41.5642 25.4954 42.6972C25.4856 43.8303 25.7015 44.954 26.1306 46.0027C26.5596 47.0514 27.1933 48.0042 27.9945 48.8054C28.7957 49.6066 29.7485 50.2402 30.7972 50.6693C31.8459 51.0983 32.9696 51.3143 34.1026 51.3044C35.2357 51.2946 36.3554 51.0592 37.3965 50.6119C38.4376 50.1647 39.3792 49.5146 40.1664 48.6996L42.6666 46.1993L45.1669 48.6996C46.7763 50.254 48.9319 51.1141 51.1693 51.0947C53.4067 51.0752 55.5469 50.1778 57.1291 48.5957C58.7112 47.0135 59.6087 44.8732 59.6281 42.6358C59.6476 40.3984 58.7875 38.2429 57.233 36.6335L54.7328 34.1332L57.233 31.6329C58.8328 30.0327 59.7315 27.8626 59.7315 25.5999C59.7315 23.3371 58.8328 21.167 57.233 19.5668Z" fill="#E87637"/>
<path d="M441.233 156.1C439.633 154.5 437.463 153.602 435.2 153.602C432.937 153.602 430.767 154.5 429.167 156.1L426.667 158.6L424.166 156.1C422.557 154.546 420.401 153.685 418.164 153.705C415.927 153.724 413.786 154.622 412.204 156.204C410.622 157.786 409.725 159.926 409.705 162.164C409.686 164.401 410.546 166.557 412.1 168.166L414.6 170.666L412.1 173.167C411.285 173.954 410.635 174.895 410.188 175.937C409.741 176.978 409.505 178.097 409.495 179.23C409.486 180.364 409.701 181.487 410.131 182.536C410.56 183.585 411.193 184.537 411.994 185.339C412.796 186.14 413.748 186.773 414.797 187.202C415.846 187.632 416.97 187.847 418.103 187.838C419.236 187.828 420.355 187.592 421.396 187.145C422.438 186.698 423.379 186.048 424.166 185.233L426.667 182.733L429.167 185.233C430.776 186.787 432.932 187.647 435.169 187.628C437.407 187.608 439.547 186.711 441.129 185.129C442.711 183.547 443.609 181.406 443.628 179.169C443.648 176.932 442.787 174.776 441.233 173.167L438.733 170.666L441.233 168.166C442.833 166.566 443.731 164.396 443.731 162.133C443.731 159.87 442.833 157.7 441.233 156.1V156.1Z" fill="#E87637"/>
<path d="M483.9 19.5668C482.299 17.967 480.129 17.0684 477.866 17.0684C475.604 17.0684 473.434 17.967 471.833 19.5668L469.333 22.0671L466.833 19.5668C465.223 18.0124 463.068 17.1523 460.83 17.1717C458.593 17.1912 456.453 18.0886 454.871 19.6708C453.289 21.2529 452.391 23.3932 452.372 25.6306C452.352 27.868 453.212 30.0235 454.767 31.6329L457.267 34.1332L454.767 36.6335C453.952 37.4206 453.302 38.3623 452.854 39.4034C452.407 40.4445 452.172 41.5642 452.162 42.6972C452.152 43.8303 452.368 44.954 452.797 46.0027C453.226 47.0514 453.86 48.0042 454.661 48.8054C455.462 49.6066 456.415 50.2402 457.464 50.6693C458.512 51.0983 459.636 51.3143 460.769 51.3044C461.902 51.2946 463.022 51.0592 464.063 50.6119C465.104 50.1647 466.046 49.5146 466.833 48.6996L469.333 46.1993L471.833 48.6996C473.443 50.254 475.598 51.1141 477.836 51.0947C480.073 51.0752 482.213 50.1778 483.796 48.5957C485.378 47.0135 486.275 44.8732 486.295 42.6358C486.314 40.3984 485.454 38.2429 483.9 36.6335L481.399 34.1332L483.9 31.6329C485.499 30.0327 486.398 27.8626 486.398 25.5999C486.398 23.3371 485.499 21.167 483.9 19.5668V19.5668Z" fill="#E87637"/>
</g>
<defs>
<clipPath id="clip0_423_49">
<rect width="512" height="512" fill="white"/>
</clipPath>
</defs>
</svg>
