<svg width="37" height="43" viewBox="0 0 37 43" fill="none" xmlns="http://www.w3.org/2000/svg">
<path d="M26.7029 12.9092C26.4152 12.7141 26.0234 12.7888 25.8279 13.0766C25.6326 13.3645 25.7076 13.7562 25.9954 13.9516C30.1757 16.7885 32.6714 21.4941 32.6714 26.5391C32.6714 34.921 25.8522 41.7402 17.4702 41.7402C9.08825 41.7402 2.26906 34.921 2.26906 26.5391C2.26906 24.7833 2.56275 23.0756 3.14249 21.4475L5.153 24.376C5.27049 24.5471 5.46475 24.6494 5.67236 24.6494C5.87997 24.6494 6.07414 24.5471 6.19172 24.376L10.343 18.3293C10.9961 17.3812 11.3414 16.2705 11.3414 15.1172C11.3414 14.3098 11.1706 13.5418 10.8649 12.846C12.9116 11.8587 15.1817 11.3379 17.4702 11.3379C18.1933 11.3379 18.9185 11.3894 19.6301 11.4904L21.9899 14.9278C22.1074 15.0989 22.3017 15.2012 22.5093 15.2012C22.7169 15.2012 22.9111 15.0989 23.0286 14.9278L27.1801 8.88101C27.8331 7.933 28.1783 6.82222 28.1783 5.66895C28.1783 2.54305 25.6353 0 22.5094 0C19.3835 0 16.8404 2.54305 16.8404 5.66895C16.8404 6.82213 17.1856 7.93291 17.8382 8.88017L18.6919 10.1236C18.2855 10.0938 17.8776 10.0781 17.4704 10.0781C14.9608 10.0781 12.4707 10.6561 10.2316 11.7525C9.1981 10.3559 7.53958 9.44824 5.67261 9.44824C2.54671 9.44824 0.00366211 11.9913 0.00366211 15.1172C0.00366211 16.2705 0.348838 17.3812 1.0014 18.3284L2.27955 20.1902C1.43694 22.2017 1.00929 24.3356 1.00929 26.5391C1.00929 35.6157 8.39362 43 17.4702 43C26.5468 43 33.9312 35.6157 33.9312 26.5391C33.9312 21.0761 31.229 15.9808 26.7029 12.9092ZM22.5093 1.25977C24.9405 1.25977 26.9185 3.23777 26.9185 5.66895C26.9185 6.5659 26.6502 7.42951 26.142 8.16714L22.5093 13.4584L20.5154 10.5541C20.511 10.5475 20.5067 10.541 20.5021 10.5346L18.8762 8.1663C18.3685 7.42943 18.1002 6.56573 18.1002 5.66895C18.1001 3.23777 20.0781 1.25977 22.5093 1.25977ZM1.26326 15.1172C1.26326 12.686 3.24126 10.708 5.67244 10.708C8.10362 10.708 10.0816 12.686 10.0816 15.1172C10.0816 16.0141 9.81329 16.8777 9.3051 17.6154L5.67244 22.9067L2.03919 17.6145C1.53159 16.8777 1.26326 16.0141 1.26326 15.1172Z" fill="#E4773A"/>
<path d="M8.82184 15.1172C8.82184 13.3806 7.40905 11.9678 5.67242 11.9678C3.9358 11.9678 2.52301 13.3806 2.52301 15.1172C2.52301 16.8538 3.9358 18.2666 5.67242 18.2666C7.40905 18.2666 8.82184 16.8538 8.82184 15.1172ZM3.78278 15.1172C3.78278 14.0753 4.63051 13.2275 5.67242 13.2275C6.71433 13.2275 7.56207 14.0753 7.56207 15.1172C7.56207 16.1591 6.71433 17.0068 5.67242 17.0068C4.63051 17.0068 3.78278 16.1591 3.78278 15.1172Z" fill="#E4773A"/>
<path d="M12.4312 25.4219C10.6945 25.4219 9.28174 26.8347 9.28174 28.5713C9.28174 30.3079 10.6945 31.7207 12.4312 31.7207C14.1678 31.7207 15.5806 30.3079 15.5806 28.5713C15.5806 26.8347 14.1678 25.4219 12.4312 25.4219ZM12.4312 30.4609C11.3892 30.4609 10.5415 29.6132 10.5415 28.5713C10.5415 27.5294 11.3892 26.6816 12.4312 26.6816C13.4731 26.6816 14.3208 27.5294 14.3208 28.5713C14.3208 29.6132 13.4731 30.4609 12.4312 30.4609Z" fill="#E4773A"/>
<path d="M12.4312 22.9023C9.30525 22.9023 6.76221 25.4454 6.76221 28.5713C6.76221 29.7246 7.10738 30.8353 7.75994 31.7825L11.9119 37.8301C12.0294 38.0012 12.2236 38.1035 12.4312 38.1035C12.6388 38.1035 12.833 38.0012 12.9505 37.8301L17.1019 31.7834C17.755 30.8354 18.1003 29.7246 18.1003 28.5713C18.1001 25.4455 15.5571 22.9023 12.4312 22.9023ZM16.0639 31.0695L12.4312 36.3608L8.7979 31.0686C8.2903 30.3318 8.02197 29.4682 8.02197 28.5713C8.02197 26.1401 9.99997 24.1621 12.4312 24.1621C14.8623 24.1621 16.8403 26.1401 16.8403 28.5713C16.8403 29.4683 16.5721 30.3319 16.0639 31.0695Z" fill="#E4773A"/>
<path d="M22.5093 8.81836C24.2459 8.81836 25.6587 7.40557 25.6587 5.66895C25.6587 3.93232 24.2459 2.51953 22.5093 2.51953C20.7726 2.51953 19.3599 3.93232 19.3599 5.66895C19.3599 7.40557 20.7727 8.81836 22.5093 8.81836ZM22.5093 3.7793C23.5512 3.7793 24.3989 4.62704 24.3989 5.66895C24.3989 6.71086 23.5513 7.55859 22.5093 7.55859C21.4673 7.55859 20.6196 6.71086 20.6196 5.66895C20.6196 4.62704 21.4674 3.7793 22.5093 3.7793Z" fill="#E4773A"/>
<path d="M36.3667 3.7793H30.0679C29.7199 3.7793 29.438 4.06123 29.438 4.40918C29.438 4.75713 29.7199 5.03906 30.0679 5.03906H36.3667C36.7146 5.03906 36.9966 4.75713 36.9966 4.40918C36.9966 4.06123 36.7146 3.7793 36.3667 3.7793Z" fill="#E4773A"/>
<path d="M32.4826 7.55859C32.8306 7.55859 33.1125 7.27666 33.1125 6.92871C33.1125 6.58076 32.8306 6.29883 32.4826 6.29883H29.9631C29.6151 6.29883 29.3332 6.58076 29.3332 6.92871C29.3332 7.27666 29.6151 7.55859 29.9631 7.55859H32.4826Z" fill="#E4773A"/>
<path d="M26.9185 27.3115C26.9185 26.9636 26.6365 26.6816 26.2886 26.6816H19.9897C19.6418 26.6816 19.3599 26.9636 19.3599 27.3115C19.3599 27.6595 19.6418 27.9414 19.9897 27.9414H26.2886C26.6365 27.9414 26.9185 27.6595 26.9185 27.3115Z" fill="#E4773A"/>
<path d="M19.8849 29.2012C19.537 29.2012 19.2551 29.4831 19.2551 29.8311C19.2551 30.179 19.537 30.4609 19.8849 30.4609H22.4045C22.7524 30.4609 23.0344 30.179 23.0344 29.8311C23.0344 29.4831 22.7524 29.2012 22.4045 29.2012H19.8849Z" fill="#E4773A"/>
</svg>
