<svg width="512" height="512" viewBox="0 0 512 512" fill="none" xmlns="http://www.w3.org/2000/svg">
<path d="M457.193 61.375H418.505C414.755 26.913 385.494 0 350.056 0H316.931C272.051 0 231.606 23.771 209.293 60.71V34.622C209.293 34.568 209.286 34.516 209.285 34.463C209.114 15.911 192.032 0.865 171.052 0.865C150.072 0.865 132.991 15.912 132.82 34.463C132.819 34.516 132.812 34.568 132.812 34.622V46.406C98.1399 50.13 71.049 79.558 71.049 115.202V169H38.554C28.905 169 21.054 176.851 21.054 186.5V206.5C21.054 216.149 28.905 224 38.554 224H71.049V260.511C71.049 264.653 74.406 268.011 78.549 268.011C82.692 268.011 86.049 264.653 86.049 260.511V224H101.074V343.326C101.074 357.684 106.568 371.667 116.234 382.212L105.595 392.851C93.132 379.499 86.049 361.656 86.049 343.335V295.51C86.049 291.368 82.692 288.01 78.549 288.01C74.406 288.01 71.049 291.368 71.049 295.51V343.335C71.049 365.859 79.926 387.784 95.495 403.991C94.469 406.024 93.925 408.283 93.944 410.63C93.977 414.548 95.547 418.206 98.362 420.929L108.63 430.863C111.425 433.567 115.068 434.914 118.709 434.914C121.082 434.914 123.452 434.335 125.589 433.192L136.637 443.88C135.631 445.897 135.096 448.133 135.115 450.456C135.147 454.374 136.717 458.033 139.533 460.758L159.967 480.525C162.762 483.229 166.405 484.576 170.046 484.576C172.419 484.576 174.79 483.997 176.927 482.854L181.615 487.389C198.021 503.259 219.627 511.999 242.452 511.999H266.772C305.491 511.999 338.411 486.718 349.906 451.797C356.543 451.378 363.101 450.281 369.464 448.497C393.55 441.747 413.549 424.986 424.334 402.509C435.182 379.903 435.757 353.685 425.912 330.579C424.808 327.985 423.912 325.773 423.096 323.62C421.627 319.746 417.295 317.797 413.424 319.266C409.551 320.735 407.602 325.065 409.07 328.938C409.96 331.284 410.925 333.672 412.112 336.458C420.265 355.595 419.791 377.304 410.81 396.02C401.891 414.606 385.346 428.469 365.416 434.054C361.506 435.149 357.506 435.932 353.455 436.418C353.988 432.519 354.27 428.542 354.27 424.499V415.449C372.42 406.842 384.301 388.375 384.301 367.999C384.301 339.05 360.749 315.499 331.801 315.499C302.853 315.499 279.301 339.05 279.301 367.999C279.301 388.314 291.153 406.78 309.244 415.407V424.474C309.244 427.685 308.874 430.809 308.196 433.818C281.359 428.995 256.276 418.877 233.559 403.686C230.118 401.384 225.458 402.308 223.156 405.751C220.853 409.194 221.778 413.852 225.221 416.154C248.711 431.863 274.554 442.52 302.157 447.935C294.537 459.399 281.51 466.973 266.743 466.973H242.459C231.372 466.973 220.878 462.728 212.909 455.02L208.606 450.857C209.541 448.898 210.041 446.743 210.023 444.505C209.991 440.587 208.421 436.928 205.605 434.203L185.171 414.436C180.616 410.03 173.811 409.229 168.43 411.991L157.268 401.194C158.203 399.235 158.703 397.08 158.685 394.841C158.652 390.923 157.082 387.265 154.267 384.541L143.998 374.608C139.464 370.223 132.703 369.413 127.333 372.13C120.152 364.328 116.07 353.965 116.07 343.324V247.685L140.078 299.537C150.11 335.131 169.723 367.582 196.832 393.417C198.284 394.801 200.145 395.487 202.005 395.487C203.984 395.487 205.962 394.708 207.436 393.161C210.293 390.162 210.179 385.415 207.18 382.557C182.751 359.277 164.907 330.216 155.375 298.339C179.731 265.489 203.205 250.161 222.173 237.779C232.853 230.807 242.076 224.786 249.606 217.019C252.49 214.045 252.416 209.297 249.442 206.414C246.466 203.529 241.718 203.605 238.837 206.579C232.475 213.142 223.901 218.739 213.975 225.219C195.37 237.365 172.652 252.194 148.682 282.415L124.046 229.205C113.255 205.91 113.783 179.447 125.494 156.601C133.693 140.608 147.13 127.514 163.328 119.732L188.817 107.488C198.568 102.805 209.67 101.839 220.081 104.767C238.892 110.059 252.214 127.402 252.478 146.944L252.726 165.361C252.724 170.799 252.357 175.797 251.635 180.213C250.968 184.301 253.74 188.156 257.828 188.824C261.917 189.491 265.77 186.719 266.439 182.631C267.083 178.691 267.728 172.102 267.725 165.241V126.541C302.53 126.763 335.228 140.177 359.881 164.386C384.724 188.779 398.395 221.192 398.376 255.656C398.368 270.15 399.049 282.55 400.457 293.564C400.94 297.35 404.168 300.114 407.887 300.114C408.204 300.114 408.525 300.094 408.848 300.052C412.956 299.527 415.862 295.77 415.336 291.662C414.01 281.287 413.369 269.512 413.376 255.663C413.379 250.111 413.054 244.61 412.431 239.174C435.257 221.494 448.76 194.162 448.76 165.149C448.76 155.946 447.441 146.949 444.842 138.282H457.189C475.8 138.282 490.942 121.055 490.942 99.88C490.946 78.65 475.805 61.375 457.193 61.375V61.375ZM147.27 412.391L157.327 422.12L146.702 432.745L136.645 423.016L147.27 412.391ZM294.304 368C294.304 347.322 311.126 330.5 331.804 330.5C352.482 330.5 369.304 347.322 369.304 368C369.304 379.989 363.546 391.053 354.273 398.018V368.012C354.273 355.599 344.173 345.5 331.76 345.5C319.347 345.5 309.247 355.599 309.247 368.012V397.948C300.029 390.973 294.304 379.934 294.304 368V368ZM242.463 481.975H266.747C298.453 481.975 324.247 456.181 324.247 424.475V368.012C324.247 363.87 327.617 360.5 331.76 360.5C335.903 360.5 339.273 363.87 339.273 368.012V424.5C339.273 464.477 306.75 497 266.773 497H242.453C223.541 497 205.64 489.758 192.046 476.609L187.983 472.679L198.608 462.053L202.484 465.803C213.266 476.232 227.464 481.975 242.463 481.975ZM194.813 444.633L170.043 469.403L150.328 450.331L175.098 425.561L194.813 444.633ZM118.706 419.741L109.157 410.503L133.926 385.734L143.476 394.971L118.706 419.741ZM325.172 123.286C325.109 123.286 325.047 123.294 324.985 123.295C307.788 115.981 289.172 111.96 269.946 111.571C276.217 91.206 295.081 76.375 317.319 76.375H430.297C425.853 82.884 423.2 91.037 423.2 99.883C423.2 108.686 425.842 116.801 430.269 123.285H325.172V123.286ZM171.052 15.864C183.867 15.864 194.293 24.333 194.293 34.742C194.293 45.151 183.867 53.62 171.052 53.62C158.238 53.62 147.812 45.151 147.812 34.742C147.812 24.333 158.237 15.864 171.052 15.864ZM86.049 115.202C86.049 87.84 106.434 65.162 132.812 61.524V76.743C114.756 80.229 101.075 96.144 101.075 115.202V169H86.049V115.202ZM38.554 209C37.175 209 36.054 207.878 36.054 206.5V186.5C36.054 185.122 37.175 184 38.554 184H101.075V209H38.554ZM116.074 142.827V115.202C116.074 104.466 123.11 95.347 132.811 92.201V122.605C126.374 128.563 120.717 135.363 116.074 142.827ZM182.325 93.97L156.835 106.214C153.734 107.704 150.729 109.375 147.812 111.182V61.621C154.258 66.006 162.315 68.621 171.052 68.621C179.789 68.621 187.847 66.006 194.293 61.62V89.736C190.193 90.713 186.179 92.118 182.325 93.97V93.97ZM224.145 90.33C220.383 89.272 216.554 88.607 212.711 88.304C222.059 62.185 240.699 41.058 264.266 28.314L269.91 48.088C270.85 51.383 273.853 53.531 277.118 53.531C277.8 53.531 278.493 53.437 279.18 53.241C283.162 52.104 285.47 47.954 284.333 43.97L278.076 22.048C290.244 17.487 303.352 14.998 316.93 14.998H338.561V40.818C338.561 44.96 341.918 48.318 346.061 48.318C350.204 48.318 353.561 44.96 353.561 40.818V15.127C379.128 16.779 399.884 36.344 403.387 61.376H382.303V46.811C382.303 42.669 378.946 39.311 374.803 39.311C370.66 39.311 367.303 42.669 367.303 46.811V61.375H324.818V37.634C324.818 33.492 321.461 30.134 317.318 30.134C313.175 30.134 309.818 33.492 309.818 37.634V61.828C294.141 63.661 280.163 71.157 269.96 82.233L252.189 66.801C249.062 64.085 244.326 64.418 241.608 67.546C238.892 70.673 239.226 75.41 242.353 78.126L261.107 94.412C258.248 99.484 256.045 104.973 254.62 110.772C247.01 101.128 236.461 93.795 224.145 90.33V90.33ZM433.764 165.153C433.764 186.79 424.825 207.319 409.396 222.044C403.193 196.372 389.875 172.814 370.395 153.687C364.613 148.01 358.43 142.873 351.916 138.286H429.042C432.169 146.868 433.764 155.883 433.764 165.153V165.153ZM457.193 123.286C446.719 123.286 438.199 112.788 438.199 99.884C438.199 86.922 446.72 76.376 457.193 76.376C467.534 76.376 475.946 86.921 475.946 99.884C475.946 112.788 467.534 123.286 457.193 123.286V123.286Z" fill="#E87637"/>
</svg>
