<svg width="43" height="43" viewBox="0 0 43 43" fill="none" xmlns="http://www.w3.org/2000/svg">
<path d="M42.9992 18.862C42.9992 18.6905 42.9479 18.5175 42.8393 18.3681C42.8016 18.3165 42.7589 18.2709 42.7128 18.2305C42.7129 18.2304 42.713 18.2303 42.7132 18.2301L39.8148 15.6936C40.4393 15.1907 40.8399 14.4205 40.8399 13.5582V12.18C40.8399 8.47527 37.8259 5.46124 34.1212 5.46124C30.4165 5.46124 27.4024 8.47527 27.4024 12.18C27.4024 15.8847 30.4165 18.8987 34.1212 18.8987C34.585 18.8987 34.961 18.5227 34.961 18.0589C34.961 17.5951 34.585 17.2191 34.1212 17.2191C31.3426 17.2191 29.0821 14.9585 29.0821 12.18C29.0821 9.40145 31.3426 7.14093 34.1212 7.14093C36.8997 7.14093 39.1602 9.40145 39.1602 12.18V13.5582C39.1602 14.1435 38.684 14.6197 38.0986 14.6197C37.5132 14.6197 37.037 14.1435 37.037 13.5582V12.3977V9.98313C37.037 9.75217 36.942 9.53146 36.7742 9.37281C36.0537 8.69179 35.1116 8.31671 34.1212 8.31671C31.991 8.31671 30.2579 10.0498 30.2579 12.18C30.2579 14.3102 31.991 16.0433 34.1212 16.0433C34.8419 16.0433 35.5367 15.8437 36.1396 15.473C36.6216 15.966 37.2873 16.2779 38.0249 16.2976C38.07 16.3764 38.128 16.4494 38.2001 16.5126L40.8157 18.8017L34.0977 23.6891V21.4997C34.0977 21.0358 33.7217 20.6598 33.2578 20.6598C32.794 20.6598 32.418 21.0358 32.418 21.4997V24.9111L26.1482 29.4724L21.9941 26.4503C21.6995 26.236 21.3005 26.236 21.0059 26.4503L16.8518 29.4724L2.22071 18.8281L6.99968 14.6458C7.34872 14.3403 7.38399 13.8097 7.07854 13.4607C6.773 13.1116 6.24247 13.0764 5.89344 13.3818L0.309734 18.2108C0.309398 18.2112 0.309063 18.2114 0.308727 18.2118C0.12035 18.3658 0 18.5998 0 18.8621V42.1597C0 42.6236 0.375998 42.9996 0.839844 42.9996H42.1602C42.624 42.9996 43 42.6236 43 42.1597V18.8621C42.9997 18.8621 42.9994 18.862 42.9992 18.862ZM35.3574 12.3978V13.5583V13.9794C34.9956 14.229 34.567 14.3636 34.1213 14.3636C32.9173 14.3636 31.9377 13.384 31.9377 12.18C31.9377 10.976 32.9173 9.9964 34.1213 9.9964C34.567 9.9964 34.9956 10.131 35.3574 10.3805V12.3978ZM1.67969 20.5117L15.4242 30.5109L1.67969 40.5102V20.5117ZM3.42186 41.3199L21.5 28.1679L39.5781 41.3199H3.42186ZM41.3203 40.5102L27.5758 30.5109L41.3203 20.5117V40.5102Z" fill="#E4773A"/>
<path d="M28.3319 5.64684L22.0499 0.204657C21.7308 -0.0719039 21.2632 -0.0641773 20.9527 0.203649C20.9524 0.203397 20.9523 0.203229 20.952 0.202977L17.9286 2.80649C17.5771 3.10917 17.5375 3.63945 17.8402 3.99092C18.0063 4.18384 18.2409 4.28277 18.477 4.28277C18.6711 4.28277 18.8661 4.21592 19.0246 4.07936L21.4985 1.9491L25.5525 5.46115H9.74219C9.27834 5.46115 8.90234 5.83715 8.90234 6.301V18.3921C8.90234 18.856 9.27834 19.232 9.74219 19.232C10.206 19.232 10.582 18.856 10.582 18.3921V7.14093H27.7819C27.7792 7.13396 27.7771 7.12791 27.7744 7.12111C27.7767 7.12111 27.7792 7.12144 27.7815 7.12144C28.0167 7.12144 28.2506 7.02318 28.4167 6.83153C28.7204 6.48098 28.6824 5.95053 28.3319 5.64684Z" fill="#E4773A"/>
<path d="M21.617 13.941H13.2206C12.7567 13.941 12.3807 14.317 12.3807 14.7808C12.3807 15.2447 12.7567 15.6207 13.2206 15.6207H21.617C22.0808 15.6207 22.4568 15.2447 22.4568 14.7808C22.4568 14.317 22.0808 13.941 21.617 13.941Z" fill="#E4773A"/>
<path d="M21.5 9.74176H13.2206C12.7567 9.74176 12.3807 10.1178 12.3807 10.5816C12.3807 11.0454 12.7567 11.4214 13.2206 11.4214H21.5C21.9639 11.4214 22.3399 11.0454 22.3399 10.5816C22.3399 10.1178 21.9639 9.74176 21.5 9.74176Z" fill="#E4773A"/>
<path d="M10.336 21.1855C10.1797 21.0293 9.96307 20.9394 9.74219 20.9394C9.52131 20.9394 9.30463 21.0293 9.14842 21.1855C8.99221 21.3417 8.90234 21.5584 8.90234 21.7792C8.90234 22.001 8.99221 22.2168 9.14842 22.373C9.30463 22.5301 9.52131 22.6191 9.74219 22.6191C9.96307 22.6191 10.1797 22.5301 10.336 22.373C10.4922 22.2168 10.582 22.001 10.582 21.7792C10.582 21.5584 10.4922 21.3417 10.336 21.1855Z" fill="#E4773A"/>
<path d="M27.1764 18.0807H25.5312C25.0674 18.0807 24.6914 18.4567 24.6914 18.9206C24.6914 19.3844 25.0674 19.7604 25.5312 19.7604H27.1764C27.6403 19.7604 28.0163 19.3844 28.0163 18.9206C28.0163 18.4567 27.6403 18.0807 27.1764 18.0807Z" fill="#E4773A"/>
<path d="M21.8201 18.0807H21.8108C21.347 18.0807 20.971 18.4567 20.971 18.9206C20.971 19.3844 21.347 19.7604 21.8108 19.7604H21.8201C22.2838 19.7604 22.6599 19.3844 22.6599 18.9206C22.6599 18.4567 22.2839 18.0807 21.8201 18.0807Z" fill="#E4773A"/>
<path d="M17.8047 18.0807H13.2164C12.7525 18.0807 12.3765 18.4567 12.3765 18.9206C12.3765 19.3844 12.7525 19.7604 13.2164 19.7604H17.8047C18.2685 19.7604 18.6445 19.3844 18.6445 18.9206C18.6445 18.4567 18.2685 18.0807 17.8047 18.0807Z" fill="#E4773A"/>
</svg>
