<svg width="512" height="512" viewBox="0 0 512 512" fill="none" xmlns="http://www.w3.org/2000/svg">
<path d="M274.443 157.03C268.321 159.864 260.407 159.864 254.283 157.03C250.527 155.29 246.067 156.927 244.326 160.686C242.587 164.445 244.223 168.903 247.982 170.643C253.035 172.981 258.699 174.151 264.363 174.151C270.028 174.151 275.692 172.982 280.744 170.643C284.503 168.903 286.14 164.445 284.4 160.686C282.659 156.927 278.2 155.291 274.443 157.03V157.03Z" fill="#E87637"/>
<path d="M173.521 170.643C178.573 172.981 184.237 174.151 189.902 174.151C195.567 174.151 201.231 172.982 206.283 170.643C210.042 168.903 211.679 164.446 209.939 160.686C208.2 156.927 203.744 155.29 199.982 157.03C193.859 159.864 185.945 159.864 179.822 157.03C176.064 155.29 171.606 156.927 169.865 160.686C168.125 164.445 169.762 168.903 173.521 170.643V170.643Z" fill="#E87637"/>
<path d="M213.464 199.854C217.659 201.991 222.261 203.06 226.863 203.06C231.465 203.06 236.066 201.991 240.261 199.854C243.951 197.973 245.419 193.457 243.538 189.766C241.657 186.076 237.142 184.609 233.45 186.489C229.324 188.592 224.398 188.592 220.274 186.489C216.583 184.61 212.066 186.075 210.186 189.766C208.306 193.457 209.774 197.973 213.464 199.854Z" fill="#E87637"/>
<path d="M243.831 139.501C250.355 141.605 257.359 142.657 264.363 142.657C271.367 142.657 278.371 141.605 284.895 139.501C288.837 138.23 291.002 134.003 289.731 130.061C288.46 126.119 284.231 123.955 280.292 125.225C270.169 128.49 258.558 128.49 248.435 125.225C244.497 123.954 240.266 126.119 238.996 130.061C237.723 134.003 239.888 138.229 243.831 139.501Z" fill="#E87637"/>
<path d="M227.132 214C210.652 214 199.142 227.364 199.142 246.5C199.142 250.642 202.5 254 206.642 254H247.622C251.765 254 255.122 250.642 255.122 246.5C255.123 227.972 243.089 214 227.132 214V214ZM215.183 239C216.811 233.531 220.486 229 227.132 229C233.143 229 237.134 233.373 238.966 239H215.183Z" fill="#E87637"/>
<path d="M380.632 306.315C369.757 306.315 359.177 308.006 349.183 311.202V199.784C356.992 192.246 361.863 181.683 361.863 169.998V165.785C361.863 156.021 356.809 147.42 349.183 142.445V108.826C349.183 48.819 300.365 0 240.358 0C221.758 0 203.42 5.95 188.357 16.815C173.879 15.11 159.449 17.74 146.43 24.485C132.835 31.528 121.524 43.079 114.58 57.009C107.919 70.371 104.542 85.347 104.542 101.521V142.444C96.917 147.419 91.862 156.02 91.862 165.784V169.997C91.862 181.682 96.733 192.245 104.542 199.783V336.687C85.607 344.101 69.829 358.445 60.75 376.752L51.01 396.422C49.172 400.134 50.691 404.633 54.403 406.471C55.473 407.001 56.608 407.251 57.725 407.251C60.487 407.251 63.143 405.72 64.452 403.078L74.19 383.412C82.292 367.074 96.914 354.574 114.303 349.117L172.437 330.905C179.683 353.164 195.348 368.622 219.13 376.968V421.98L212.505 424.919C210.784 425.682 208.983 426.161 207.13 426.351V424.5C207.13 414.851 199.279 407 189.63 407H116.63C112.488 407 109.13 410.358 109.13 414.5C109.13 418.642 112.488 422 116.63 422H154.13V497H86.41C71.683 497 58.222 489.552 50.401 477.076C42.578 464.596 41.74 449.229 48.118 436.054L48.758 434.774C50.611 431.069 49.109 426.564 45.404 424.712C41.701 422.86 37.195 424.361 35.342 428.066L34.659 429.432C25.974 447.37 27.107 468.16 37.691 485.043C48.275 501.923 66.487 512 86.412 512H189.632C199.281 512 207.132 504.149 207.132 494.5V492.617C208.903 493.188 210.566 494.032 212.033 495.123C226.666 506.006 244.635 512 262.632 512H290.632C303.888 512 315.356 502.393 318.108 490.01C335.915 503.687 357.959 511.315 380.632 511.315C437.151 511.315 483.132 465.334 483.132 408.815C483.132 352.296 437.151 306.315 380.632 306.315ZM334.183 317.357C328.67 320.154 323.421 323.456 318.492 327.222C318.305 327.166 278.38 314.101 277.971 313.982C272.644 312.452 268.923 307.511 268.923 301.968V277.41C285.882 268.377 300.14 255.034 310.263 238.659C315.545 230.114 319.586 220.932 322.315 211.375C326.457 211.189 330.441 210.389 334.182 209.069V317.357H334.183ZM346.863 165.784V169.997C346.863 182.827 337.671 193.545 325.528 195.925C326.161 191.184 326.491 186.39 326.493 181.569V161.3C326.493 158.499 326.318 155.703 325.98 152.929H334.007C341.096 152.929 346.863 158.696 346.863 165.784V165.784ZM119.543 101.521C119.543 87.496 122.311 75.125 128.006 63.701C133.543 52.593 142.536 43.396 153.331 37.804C160.541 34.068 168.297 31.934 176.23 31.437C175.115 34.183 174.409 37.095 174.14 40.135C173.283 59.237 184.049 72.071 196.959 83.817C196.409 114.245 172.393 137.93 141.811 137.93C137.147 137.934 124.508 137.922 119.542 137.934V101.521H119.543ZM106.863 169.998V165.785C106.863 158.697 112.63 152.93 119.718 152.93H127.234V181.561C127.234 186.373 127.566 191.172 128.203 195.927C116.057 193.548 106.863 182.829 106.863 169.998ZM131.421 211.375C133.64 219.15 136.717 226.682 140.62 233.795C141.985 236.282 144.552 237.689 147.202 237.689C148.421 237.689 149.659 237.391 150.803 236.763C154.434 234.77 155.763 230.211 153.77 226.58C146.222 212.825 142.233 197.257 142.233 181.561V152.929C155.729 152.851 168.572 149.041 179.598 142.024C182.659 142.437 185.761 142.649 188.863 142.649C195.922 142.649 202.966 141.587 209.434 139.502C213.376 138.231 215.541 134.004 214.27 130.062C212.998 126.12 208.772 123.953 204.83 125.226C202.112 126.103 199.255 126.729 196.336 127.133C204.21 117.458 209.287 105.936 211.163 93.581C220.824 98.945 234.536 102.942 246.637 103.371C250.62 103.371 253.938 100.236 254.123 96.216C254.313 92.078 251.113 88.57 246.976 88.379C219.595 87.589 189.218 64.887 189.08 41.456C189.46 37.163 191.418 33.591 195.055 30.537C207.947 20.518 224.032 15 240.358 15C292.093 15 334.183 57.09 334.183 108.825V137.933C334.043 137.92 323.184 137.933 322.447 137.929C321.238 134.534 319.766 131.232 318.041 128.064C311.197 114.959 298.943 102.756 284.916 96.067C281.19 94.253 276.702 95.802 274.889 99.526C273.076 103.25 274.624 107.739 278.348 109.552C288.968 114.606 299.139 124.242 304.845 135.195C309.194 143.183 311.492 152.21 311.492 161.299V181.567C311.482 217.24 291.654 249.318 259.749 265.28L242.875 273.712C232.85 278.731 220.872 278.729 210.836 273.711L193.976 265.282C186.836 261.712 180.176 257.241 174.181 251.996C171.064 249.268 166.325 249.584 163.598 252.701C160.87 255.818 161.186 260.556 164.303 263.284C170.715 268.895 177.788 273.729 185.342 277.697V301.97C185.342 307.512 181.621 312.451 176.293 313.981C176.217 313.998 119.778 331.686 119.543 331.757V209.068C123.287 210.39 127.275 211.19 131.421 211.375V211.375ZM186.555 325.788C194.906 320.953 200.342 311.905 200.342 301.971V285.236L204.128 287.129C211.248 290.689 219.054 292.469 226.862 292.469C234.667 292.469 242.473 290.689 249.584 287.13L253.923 284.962V301.969C253.923 311.563 259.001 320.319 266.869 325.264C260.97 344.347 247.752 356.954 226.632 363.659C205.705 357.014 192.533 344.579 186.555 325.788V325.788ZM192.132 494.5C192.132 495.878 191.01 497 189.632 497H169.132V422H189.632C191.01 422 192.132 423.122 192.132 424.5V494.5ZM303.739 484.321C303.734 491.075 297.61 497 290.632 497H262.632C247.838 497 233.048 492.059 220.985 483.087C216.947 480.084 212.16 478.084 207.132 477.23V441.392C211.092 441.174 214.939 440.249 218.589 438.63L248.307 425.448C252.44 423.614 257.271 424.14 260.911 426.822L265.74 430.379C267.027 431.327 268.584 431.839 270.182 431.84L291.151 431.855C298.112 431.86 303.771 437.527 303.766 444.488L303.739 484.321ZM380.632 496.315C357.126 496.315 335.265 487.228 318.748 470.669L318.767 444.498C318.777 430.06 307.649 418.173 293.516 416.963C293.267 414.26 293.132 411.533 293.132 408.814C293.132 403.442 293.621 398.065 294.587 392.833C295.338 388.76 292.645 384.849 288.571 384.097C284.501 383.344 280.587 386.037 279.835 390.112C278.705 396.24 278.132 402.532 278.132 408.814C278.132 411.49 278.249 414.174 278.456 416.845L272.653 416.841L269.805 414.743C261.838 408.875 251.268 407.722 242.224 411.735L234.131 415.325V376.966C257.982 368.596 273.669 353.072 280.886 330.71L305.704 338.822C301.179 343.688 297.077 349.038 293.478 354.837C291.294 358.357 292.377 362.981 295.897 365.164C299.411 367.346 304.04 366.266 306.224 362.746C322.323 336.802 350.138 321.313 380.63 321.313C428.878 321.313 468.13 360.565 468.13 408.813C468.13 457.061 428.88 496.315 380.632 496.315Z" fill="#E87637"/>
<path d="M440.632 401H427.84L416.033 381.661C414.544 379.223 411.785 377.841 408.955 378.1C406.11 378.357 403.659 380.209 402.633 382.875L380.737 439.752L357.851 358.467C356.951 355.272 354.057 353.048 350.738 353.001C347.426 352.957 344.464 355.094 343.473 358.263L330.119 401H320.633C316.49 401 313.133 404.358 313.133 408.5C313.133 412.642 316.49 416 320.633 416H335.633C338.913 416 341.813 413.868 342.791 410.737L350.258 386.843L372.413 465.532C373.289 468.641 376.058 470.841 379.284 470.991C379.401 470.997 379.518 470.999 379.635 470.999C382.724 470.999 385.514 469.099 386.632 466.193L411.163 402.468L417.231 412.407C418.593 414.638 421.018 415.999 423.632 415.999H440.632C444.775 415.999 448.132 412.641 448.132 408.499C448.132 404.357 444.775 401 440.632 401Z" fill="#E87637"/>
</svg>
