<svg width="44" height="43" viewBox="0 0 44 43" fill="none" xmlns="http://www.w3.org/2000/svg">
<path d="M26.2576 23.7419C26.0157 23.8262 25.8372 24.033 25.7892 24.2846C25.7413 24.5361 25.8312 24.7941 26.025 24.9615C26.2189 25.1288 26.4873 25.1799 26.7291 25.0957C32.6815 23.0328 36.2741 16.9733 35.2281 10.7611C34.1822 4.54888 28.8033 0 22.5037 0C16.204 0 10.8252 4.54888 9.77918 10.7611C8.7332 16.9733 12.3259 23.0328 18.2782 25.0957C18.6522 25.2257 19.0608 25.0279 19.1909 24.6539C19.3209 24.2799 19.1231 23.8712 18.749 23.7412C17.51 23.3088 16.3546 22.6664 15.3334 21.842V21.0616C15.3305 18.826 16.707 16.8203 18.7942 16.0191C21.0144 17.5921 23.9857 17.5921 26.206 16.0191C28.2931 16.8203 29.6697 18.826 29.6667 21.0616V21.8449C28.6474 22.6678 27.4942 23.3095 26.2576 23.7419ZM17.4834 10.7488C17.4834 7.97813 19.7294 5.73209 22.5001 5.73209C25.2707 5.73209 27.5167 7.97813 27.5167 10.7488C27.5167 13.5194 25.2707 15.7654 22.5001 15.7654C19.7308 15.7623 17.4866 13.5181 17.4834 10.7488ZM27.3734 14.9577C29.6266 12.3554 29.4392 8.44223 26.9476 6.0671C24.456 3.69197 20.5384 3.69197 18.0468 6.0671C15.5552 8.44223 15.3678 12.3554 17.621 14.9577C15.5107 16.0367 14.111 18.1328 13.923 20.4954C9.83759 15.8911 10.1164 8.88249 14.5547 4.61726C18.993 0.35204 26.0071 0.35204 30.4454 4.61726C34.8837 8.88249 35.1626 15.8911 31.0771 20.4954C30.8885 18.1314 29.4863 16.0348 27.3734 14.9577Z" fill="#E4773A"/>
<path d="M16.3367 42.72C16.775 43.0434 17.3594 43.0882 17.8417 42.8354L22.5051 40.4123L27.1677 42.8361C27.6513 43.0875 28.2355 43.0429 28.6753 42.7211C29.1151 42.3992 29.3344 41.8558 29.241 41.3189L28.3552 36.2076L32.1034 32.5949C32.4972 32.2153 32.6406 31.6447 32.4731 31.124C32.3056 30.6034 31.8563 30.2234 31.3151 30.1446L26.1121 29.3972L23.7901 24.7295C23.549 24.2407 23.0501 23.9324 22.5051 23.9354C21.9617 23.9335 21.4645 24.2406 21.223 24.7274L18.8881 29.3972L13.6965 30.1439C13.155 30.2225 12.7054 30.6026 12.5379 31.1235C12.3703 31.6445 12.514 32.2154 12.9082 32.5949L16.6578 36.2076L15.7713 41.3189C15.6766 41.8556 15.896 42.3994 16.3367 42.72ZM13.9001 31.5629L19.4628 30.7624C19.6953 30.729 19.8966 30.5839 20.0018 30.374L22.5044 25.3688L24.9962 30.3725C25.1012 30.5832 25.3029 30.729 25.5359 30.7624L31.1101 31.5629L27.0868 35.4394C26.9156 35.6045 26.8375 35.8437 26.8782 36.0779L27.8292 41.5654L22.8362 38.9704C22.6291 38.8628 22.3825 38.8628 22.1754 38.9704L17.1817 41.5654L18.1327 36.0794C18.1734 35.8451 18.0953 35.6059 17.9242 35.4408L13.9001 31.5629Z" fill="#E4773A"/>
<path d="M4.36839 31.6912L3.66821 35.7396C3.60063 36.1171 3.7035 36.5051 3.94921 36.7995C4.19492 37.0938 4.55828 37.2644 4.94173 37.2654C5.15108 37.2651 5.3573 37.2144 5.54301 37.1178L9.24173 35.1928L12.9383 37.1221C13.1654 37.2404 13.4384 37.2285 13.6544 37.091C13.8704 36.9535 13.9966 36.7111 13.9855 36.4553C13.9743 36.1995 13.8276 35.969 13.6005 35.8507L9.57283 33.7509C9.36533 33.6428 9.11813 33.6428 8.91063 33.7509L5.12878 35.721L5.84544 31.5643C5.88616 31.3301 5.80803 31.0909 5.63689 30.9258L2.59321 27.9875L6.80506 27.3826C7.03764 27.3491 7.23901 27.2037 7.34399 26.9934L9.24173 23.1994L11.1323 26.9927C11.2374 27.2036 11.4394 27.3494 11.6727 27.3826L16.1726 28.0276C16.5645 28.0836 16.9275 27.8113 16.9835 27.4195C17.0395 27.0277 16.7673 26.6646 16.3754 26.6086L12.2474 26.0173L10.4006 22.3107C10.1818 21.8698 9.73112 21.5917 9.23886 21.5941H9.23456C8.74767 21.5931 8.30274 21.8695 8.08789 22.3064L6.23173 26.0173L2.11591 26.6079C1.62317 26.6736 1.21202 27.0165 1.05901 27.4895C0.906001 27.9624 1.03836 28.4812 1.39924 28.8231L4.36839 31.6912Z" fill="#E4773A"/>
<path d="M43.9355 27.4872C43.7859 27.0167 43.3785 26.6746 42.8892 26.6086L38.7684 26.0173L36.9165 22.3071C36.7023 21.869 36.2575 21.591 35.7698 21.5905H35.7655C35.273 21.5879 34.822 21.8659 34.6031 22.3071L32.757 26.013L28.6282 26.6043C28.3748 26.6405 28.1599 26.8092 28.0645 27.0468C27.9691 27.2845 28.0078 27.5549 28.1659 27.7563C28.324 27.9578 28.5776 28.0595 28.8311 28.0233L33.3317 27.3783C33.565 27.345 33.767 27.1993 33.8721 26.9884L35.7584 23.1994L37.6525 26.9934C37.7575 27.2036 37.9589 27.3491 38.1915 27.3826L42.4012 27.9867L39.3575 30.9251C39.1863 31.0901 39.1082 31.3293 39.1489 31.5636L39.8692 35.7203L36.0873 33.748C35.8798 33.6399 35.6326 33.6399 35.4251 33.748L31.3974 35.8478C31.1703 35.9661 31.0236 36.1966 31.0125 36.4524C31.0014 36.7083 31.1276 36.9506 31.3436 37.0881C31.5596 37.2256 31.8325 37.2375 32.0596 37.1192L35.7584 35.1928L39.4564 37.1221C39.8941 37.3495 40.4229 37.3087 40.8206 37.0168C41.2182 36.7249 41.4156 36.2325 41.3297 35.7468L40.6317 31.6912L43.603 28.8245C43.9626 28.4802 44.092 27.9598 43.9355 27.4872Z" fill="#E4773A"/>
<path d="M18.5584 33.7817C18.5929 33.7815 18.6274 33.7789 18.6616 33.7738L21.357 33.3861C21.5894 33.3527 21.7907 33.2076 21.8959 32.9977L23.1429 30.5044C23.321 30.1501 23.1782 29.7186 22.824 29.5405C22.4697 29.3624 22.0382 29.5051 21.8601 29.8594L20.7851 32.0173L18.4595 32.352C18.087 32.405 17.8189 32.7372 17.8457 33.1125C17.8725 33.4878 18.185 33.7785 18.5612 33.7781L18.5584 33.7817Z" fill="#E4773A"/>
</svg>
